<svg width="300" height="300" viewBox="0 0 300 300" fill="none" xmlns="http://www.w3.org/2000/svg">
<path d="M205.82 163.423C194.841 163.423 181.101 165.338 176.606 166.012C158.002 146.583 152.709 135.54 151.518 132.596C153.132 128.45 158.746 112.702 159.543 92.4752C159.937 82.3484 157.798 74.7815 153.184 69.9846C148.578 65.1957 143.002 64.8232 141.404 64.8232C135.798 64.8232 126.394 67.658 126.394 86.6411C126.394 103.112 134.073 120.589 136.196 125.105C125.012 157.67 113.004 179.962 110.455 184.547C65.5143 201.467 62 217.827 62 222.464C62 230.796 67.9341 235.771 77.8735 235.771C102.023 235.771 124.06 195.227 127.704 188.187C144.855 181.353 167.812 177.12 173.647 176.11C190.387 192.056 209.746 196.31 217.785 196.31C223.834 196.31 238 196.31 238 181.746C238.001 168.221 220.666 163.423 205.82 163.423ZM204.656 172.984C217.7 172.984 221.148 177.298 221.148 179.578C221.148 181.01 220.604 185.679 213.613 185.679C207.343 185.679 196.518 182.056 185.868 174.194C190.31 173.61 196.882 172.984 204.656 172.984ZM140.719 74.0911C141.908 74.0911 142.691 74.4732 143.337 75.3685C147.088 80.5742 144.063 97.5838 140.382 110.895C136.827 99.4812 134.16 81.9685 137.913 75.8074C138.647 74.6049 139.485 74.0911 140.719 74.0911ZM134.384 175.974C139.106 166.434 144.399 152.53 147.282 144.666C153.052 154.323 160.812 163.289 165.3 168.15C151.326 171.096 140.753 174.039 134.384 175.974ZM71.3808 223.737C71.0697 223.368 71.0237 222.59 71.2582 221.656C71.7499 219.699 75.5072 209.998 102.683 197.842C98.7921 203.971 92.7087 212.729 86.0258 219.272C81.3215 223.675 77.6584 225.908 75.1382 225.908C74.2366 225.908 72.9944 225.662 71.3808 223.737Z" fill="black"/>
</svg>
