<svg width="300" height="300" viewBox="0 0 300 300" fill="none" xmlns="http://www.w3.org/2000/svg">
<path d="M112.465 42L122.758 58.843M187.322 42L177.029 58.843M70.3572 116.858C75.9715 116.858 79.7144 120.601 79.7144 126.215V182.358C79.7144 187.973 75.9715 191.715 70.3572 191.715C64.7429 191.715 61 187.973 61 182.358V126.215C61 120.601 64.7429 116.858 70.3572 116.858ZM229.43 116.858C235.044 116.858 238.787 120.601 238.787 126.215V182.358C238.787 187.973 235.044 191.715 229.43 191.715C223.816 191.715 220.073 187.973 220.073 182.358V126.215C220.073 120.601 223.816 116.858 229.43 116.858ZM149.894 51.3572C123.693 51.3572 101.236 71.9431 98.4289 98.1433H200.423C198.551 71.9431 176.094 51.3572 149.894 51.3572ZM98.4289 116.858V196.394C98.4289 203.88 104.979 210.43 112.465 210.43H117.143V247.859C117.143 253.473 120.886 257.216 126.501 257.216C132.115 257.216 135.858 253.473 135.858 247.859V210.43H163.929V247.859C163.929 253.473 167.672 257.216 173.287 257.216C178.901 257.216 182.644 253.473 182.644 247.859V210.43H187.322C194.808 210.43 201.358 203.88 201.358 196.394V116.858H98.4289Z" stroke="black" stroke-width="8.36" stroke-linecap="round" stroke-linejoin="round"/>
<path d="M126.501 84.1072C129.085 84.1072 131.179 82.0125 131.179 79.4286C131.179 76.8447 129.085 74.75 126.501 74.75C123.917 74.75 121.822 76.8447 121.822 79.4286C121.822 82.0125 123.917 84.1072 126.501 84.1072Z" fill="black"/>
<path d="M173.286 84.1072C175.87 84.1072 177.965 82.0125 177.965 79.4286C177.965 76.8447 175.87 74.75 173.286 74.75C170.702 74.75 168.607 76.8447 168.607 79.4286C168.607 82.0125 170.702 84.1072 173.286 84.1072Z" fill="black"/>
</svg>
