<svg width="300" height="300" viewBox="0 0 300 300" fill="none" xmlns="http://www.w3.org/2000/svg">
<path d="M261.785 243.5H37.9672C34.1195 243.5 31 240.38 31 236.533V63.9672C31 60.1195 34.1195 57 37.9672 57H261.785C265.633 57 268.752 60.1195 268.752 63.9672V236.533C268.752 240.38 265.633 243.5 261.785 243.5Z" stroke="black" stroke-width="9.58" stroke-miterlimit="10" stroke-linecap="round" stroke-linejoin="round"/>
<path d="M32.3965 90.5723H268.126" stroke="black" stroke-width="9.58" stroke-miterlimit="10" stroke-linecap="round" stroke-linejoin="round"/>
<path d="M53.224 78.7728C55.7435 78.7728 57.786 76.7304 57.786 74.2109C57.786 71.6914 55.7435 69.6489 53.224 69.6489C50.7046 69.6489 48.6621 71.6914 48.6621 74.2109C48.6621 76.7304 50.7046 78.7728 53.224 78.7728Z" fill="black"/>
<path d="M69.4076 78.7728C71.9271 78.7728 73.9696 76.7304 73.9696 74.2109C73.9696 71.6914 71.9271 69.6489 69.4076 69.6489C66.8882 69.6489 64.8457 71.6914 64.8457 74.2109C64.8457 76.7304 66.8882 78.7728 69.4076 78.7728Z" fill="black"/>
<path d="M85.5912 78.7728C88.1107 78.7728 90.1532 76.7304 90.1532 74.2109C90.1532 71.6914 88.1107 69.6489 85.5912 69.6489C83.0717 69.6489 81.0293 71.6914 81.0293 74.2109C81.0293 76.7304 83.0717 78.7728 85.5912 78.7728Z" fill="black"/>
<path d="M142.439 191.445H186.672" stroke="black" stroke-width="9.58" stroke-miterlimit="10" stroke-linecap="round" stroke-linejoin="round"/>
<path d="M114.027 137.321L141.281 164.57L114.307 191.445" stroke="black" stroke-width="9.58" stroke-miterlimit="10" stroke-linecap="round" stroke-linejoin="round"/>
</svg>
