<svg width="313" height="314" viewBox="0 0 313 314" fill="none" xmlns="http://www.w3.org/2000/svg">
<g clip-path="url(#clip0_6679_64)">
<path d="M222.301 211.429C229.452 211.429 235.268 205.608 235.268 198.457V182.025C235.268 180.776 236.095 180.241 236.592 180.036C237.111 179.814 238.111 179.604 239.014 180.495L250.597 192.084C253.019 194.549 256.262 195.916 259.726 195.927C263.186 195.889 266.504 194.592 268.98 192.116L286.925 174.171C289.401 171.696 290.752 168.415 290.736 164.923C290.719 161.459 289.357 158.215 286.925 155.826L275.326 144.227C274.412 143.303 274.628 142.324 274.839 141.827C275.044 141.335 275.574 140.514 276.834 140.514H293.265C300.416 140.514 306.232 134.671 306.232 127.487V102.137C306.232 94.9863 300.416 89.165 293.265 89.165H276.834C275.585 89.165 275.05 88.338 274.844 87.8408C274.628 87.3273 274.407 86.3273 275.304 85.4193L286.898 73.8307C289.363 71.4092 290.725 68.1661 290.741 64.7014C290.757 61.2097 289.406 57.9234 286.93 55.4532L268.985 37.5082C266.51 35.0327 263.153 33.6219 259.732 33.6976C256.262 33.7084 253.024 35.0759 250.635 37.5082L239.036 49.1076C238.1 50.0319 237.111 49.8049 236.592 49.5887C236.095 49.3833 235.268 48.8482 235.268 47.5996V31.168C235.268 24.017 229.452 18.1957 222.301 18.1957H196.951C190.33 18.1957 184.909 23.1576 184.092 29.5303C136.625 -6.77596 82.0491 9.45563 49.6994 41.8107C43.9699 47.4753 28.9059 70.2417 28.9059 87.9164V122.525L3.13421 162.048C-0.552082 168.188 -1.02233 175.761 1.89103 182.306C4.8098 188.873 10.7608 193.619 17.8091 195.003L28.9059 195.895V220.942C28.9059 239.509 44.0132 254.616 62.5744 254.616H73.8765V300.289L74.1468 306.029L136.83 305.921C151.148 305.889 165.472 305.856 176.206 305.813L189.195 305.754C195.168 305.716 199.486 305.689 199.486 300.289V223.277C200.189 221.461 201.654 217.38 203.254 211.429H222.301ZM194.735 31.1626C194.735 29.9681 195.73 29.0006 196.951 29.0006H222.301C223.512 29.0006 224.458 29.9519 224.458 31.1626V47.5942C224.458 52.9236 227.512 57.5072 232.43 59.5611C237.306 61.5989 242.884 60.507 246.662 56.7667L258.316 45.1078C258.84 44.5673 259.694 44.5079 259.786 44.4971C260.126 44.4971 260.78 44.5835 261.337 45.1403L279.282 63.0853C279.844 63.6474 279.931 64.3068 279.925 64.6474C279.925 64.9717 279.844 65.5933 279.282 66.1446L267.639 77.7872C263.921 81.5492 262.834 87.1273 264.867 91.9973C266.921 96.9106 271.51 99.9644 276.834 99.9644H293.265C294.476 99.9644 295.422 100.916 295.422 102.126V127.477C295.422 128.698 294.454 129.693 293.265 129.693H276.834C271.499 129.693 266.91 132.741 264.861 137.649C262.834 142.503 263.921 148.065 267.661 151.837L279.315 163.491C279.85 164.01 279.925 164.631 279.925 164.956C279.931 165.296 279.844 165.95 279.282 166.518L261.337 184.463C260.775 185.025 260.126 185.106 259.786 185.106C259.689 185.063 258.835 185.036 258.278 184.463L246.641 172.82C242.879 169.101 237.3 168.01 232.43 170.047C227.517 172.101 224.458 176.685 224.458 182.014V198.446C224.458 199.657 223.507 200.608 222.301 200.608H205.908H196.951C195.724 200.608 194.735 199.64 194.735 198.446V182.014C194.735 176.679 191.687 172.09 186.779 170.042C185.692 169.588 184.568 169.35 183.444 169.199C183.168 169.161 182.903 169.134 182.633 169.118C182.352 169.101 182.066 169.031 181.784 169.031C179.822 169.031 177.898 169.528 176.12 170.399C175.871 170.518 175.633 170.647 175.39 170.782C174.396 171.35 173.439 171.999 172.596 172.831L160.937 184.49C160.418 185.019 159.796 185.101 159.472 185.101C159.472 185.101 159.467 185.101 159.461 185.101C159.126 185.101 158.472 185.014 157.915 184.457L139.97 166.512C139.408 165.95 139.322 165.291 139.327 164.95C139.327 164.626 139.408 164.004 139.97 163.453L151.613 151.81C155.332 148.054 156.418 142.492 154.391 137.638C152.343 132.73 147.754 129.682 142.419 129.682H125.987C124.793 129.682 123.825 128.687 123.825 127.466V102.116C123.825 100.921 124.798 99.9536 125.987 99.9536H142.419C147.743 99.9536 152.332 96.8997 154.386 91.9865C156.418 87.1165 155.332 81.5384 151.591 77.7548L139.938 66.1013C139.403 65.5824 139.327 64.9609 139.327 64.6366C139.322 64.296 139.408 63.642 139.97 63.0745L157.915 45.1295C158.478 44.5673 159.126 44.4862 159.461 44.4862H159.472C159.796 44.4862 160.418 44.5673 160.969 45.1295L172.612 56.7721C176.363 60.48 181.925 61.5773 186.779 59.5503C191.681 57.5018 194.735 52.9128 194.735 47.578V38.6487V31.1626ZM189.108 220.126L188.681 221.142V294.949C171.174 295.057 113.61 295.16 84.6922 295.198V249.53L84.3624 243.8H62.5798C49.975 243.8 39.7215 233.547 39.7215 220.937V185.879L19.6144 184.328C16.0957 183.549 13.2418 181.22 11.777 177.906C10.2798 174.528 10.5068 170.777 12.3067 167.777L39.7215 125.731V87.9056C39.7215 75.0468 52.0884 54.6479 57.326 49.459C100.826 5.96932 151.829 14.9364 183.93 43.3836V47.5834C183.93 48.8428 183.109 49.3779 182.622 49.5779C182.12 49.7887 181.152 50.0103 180.244 49.113L168.655 37.5244C166.234 35.0597 162.991 33.6922 159.526 33.6814C155.91 33.6382 152.748 35.0165 150.278 37.492L132.333 55.437C129.857 57.9126 128.506 61.1935 128.522 64.6852C128.539 68.1499 129.901 71.393 132.333 73.782L143.932 85.3814C144.851 86.3111 144.63 87.3111 144.413 87.8245C144.208 88.3218 143.673 89.1488 142.424 89.1488H125.993C118.842 89.1488 113.02 94.9701 113.02 102.121V127.471C113.02 134.655 118.842 140.497 125.993 140.497H142.424C143.684 140.497 144.213 141.319 144.419 141.811C144.63 142.314 144.846 143.287 143.954 144.189L132.36 155.778C129.895 158.199 128.533 161.442 128.517 164.907C128.501 168.399 129.852 171.685 132.328 174.155L150.273 192.1C152.732 194.56 155.997 195.916 159.461 195.911H159.521C162.991 195.9 166.228 194.533 168.618 192.1L180.217 180.501C181.136 179.587 182.109 179.798 182.617 180.014C183.103 180.22 183.925 180.749 183.925 182.009V198.44C183.925 199.251 184.022 200.04 184.168 200.808C184.211 201.046 184.276 201.273 184.336 201.5C184.465 202.04 184.628 202.565 184.828 203.073C184.919 203.305 185.006 203.537 185.109 203.764C185.363 204.316 185.649 204.84 185.973 205.348C186.06 205.483 186.125 205.624 186.217 205.754C186.644 206.37 187.125 206.943 187.649 207.478C187.79 207.624 187.946 207.748 188.098 207.883C188.508 208.267 188.935 208.624 189.395 208.948C189.6 209.094 189.806 209.229 190.016 209.364C190.487 209.661 190.973 209.921 191.481 210.159C191.676 210.251 191.865 210.353 192.065 210.434C192.141 210.467 192.211 210.51 192.292 210.542C190.552 216.677 189.13 220.083 189.108 220.126Z" fill="black"/>
<path d="M304.23 232.147H301.857L303.538 230.466C306.959 227.05 306.959 221.482 303.538 218.066L295.555 210.083C292.133 206.661 286.571 206.661 283.15 210.083L281.469 211.764V209.391C281.469 204.553 277.534 200.619 272.702 200.619H261.41C256.573 200.619 252.643 204.553 252.643 209.391V211.769L250.962 210.083C247.546 206.672 241.99 206.661 238.563 210.083L230.58 218.066C227.158 221.482 227.158 227.05 230.58 230.466L232.261 232.147H229.888C225.05 232.147 221.115 236.082 221.115 240.919V252.205C221.115 257.043 225.056 260.978 229.888 260.978H232.261L230.58 262.659C227.158 266.075 227.158 271.642 230.58 275.058L238.563 283.041C241.984 286.468 247.541 286.457 250.962 283.041L252.649 281.355V283.733C252.649 288.571 256.584 292.506 261.416 292.506H272.707C277.545 292.506 281.474 288.571 281.474 283.733V281.36L283.155 283.041C286.577 286.463 292.139 286.463 295.56 283.041L303.543 275.058C306.965 271.642 306.965 266.075 303.543 262.659L301.862 260.978H304.235C309.073 260.978 313.002 257.043 313.002 252.205V240.919C313.002 236.082 309.067 232.147 304.23 232.147ZM302.192 250.162H296.933C293.371 250.162 290.187 252.292 288.825 255.578C287.463 258.864 288.214 262.621 290.733 265.134L294.452 268.853L289.355 273.95L285.636 270.231C283.117 267.712 279.382 266.966 276.075 268.323C272.788 269.685 270.659 272.869 270.659 276.431V281.69H263.454V276.431C263.454 272.874 261.329 269.691 258.043 268.329C254.757 266.972 251 267.712 248.476 270.231L244.757 273.95L239.666 268.858L243.39 265.134C245.903 262.615 246.649 258.864 245.287 255.572C243.919 252.286 240.741 250.162 237.185 250.162H231.92V242.957H237.185C240.741 242.957 243.919 240.833 245.287 237.546C246.649 234.26 245.903 230.503 243.384 227.985L239.666 224.266L244.757 219.174L248.476 222.893C251 225.412 254.751 226.147 258.043 224.79C261.329 223.428 263.454 220.245 263.454 216.688V211.429H270.659V216.688C270.659 220.25 272.788 223.434 276.075 224.796C279.366 226.152 283.117 225.406 285.631 222.893L289.35 219.174L294.447 224.271L290.728 227.99C288.209 230.503 287.463 234.26 288.82 237.546C290.182 240.838 293.366 242.962 296.928 242.962H302.187L302.192 250.162Z" fill="black"/>
<path d="M267.057 225.39C255.387 225.39 245.891 234.887 245.891 246.562C245.891 258.237 255.387 267.734 267.057 267.734C278.732 267.734 288.229 258.237 288.229 246.562C288.229 234.887 278.732 225.39 267.057 225.39ZM267.057 256.918C261.344 256.918 256.701 252.27 256.701 246.557C256.701 240.844 261.344 236.195 267.057 236.195C272.77 236.195 277.419 240.844 277.419 246.557C277.419 252.27 272.765 256.918 267.057 256.918Z" fill="black"/>
<path d="M185.638 118.191H172.466C169.477 118.191 167.061 120.612 167.061 123.596V154.34C167.061 157.324 169.477 159.745 172.466 159.745H185.638C188.627 159.745 191.043 157.324 191.043 154.34V123.596C191.043 120.607 188.627 118.191 185.638 118.191ZM180.233 148.93H177.865V128.996H180.233V148.93Z" fill="black"/>
<path d="M218.069 109.408H204.891C201.902 109.408 199.486 111.829 199.486 114.813V154.335C199.486 157.319 201.902 159.74 204.891 159.74H218.069C221.058 159.74 223.474 157.319 223.474 154.335V114.813C223.474 111.824 221.058 109.408 218.069 109.408ZM212.664 148.93H210.297V120.218H212.664V148.93Z" fill="black"/>
<path d="M231.922 101.635V154.335C231.922 157.318 234.338 159.74 237.327 159.74H250.505C253.494 159.74 255.91 157.318 255.91 154.335V101.635C255.91 98.6511 253.494 96.2296 250.505 96.2296H237.327C234.338 96.2296 231.922 98.6511 231.922 101.635ZM242.732 107.04H245.1V148.93H242.732V107.04Z" fill="black"/>
<path d="M176.023 114.488L203.016 90.9054L213.524 97.4402C215.513 98.6726 218.048 98.4996 219.842 97.0024L246.192 75.0468L239.268 66.7445L215.923 86.203L205.329 79.6195C203.308 78.3655 200.713 78.5709 198.914 80.1384L168.904 106.353L176.023 114.488Z" fill="black"/>
</g>
<defs>
<clipPath id="clip0_6679_64">
<rect width="313" height="313" fill="white" transform="translate(0 0.9375)"/>
</clipPath>
</defs>
</svg>
