<svg width="300" height="300" viewBox="0 0 300 300" fill="none" xmlns="http://www.w3.org/2000/svg">
<path fill-rule="evenodd" clip-rule="evenodd" d="M150.005 42C159.924 42 168.351 54.7982 173.969 75.479C175.918 82.6594 177.585 90.8579 178.902 99.829C187.329 96.4934 195.264 93.8424 202.444 91.9288C223.143 86.4514 238.434 87.3643 243.402 95.9491C248.353 104.534 241.489 118.228 226.391 133.413C221.159 138.68 214.892 144.228 207.764 149.863C210.608 152.11 213.329 154.357 215.892 156.569C213.557 158.202 211.644 160.362 210.309 162.89C207.36 160.344 204.2 157.763 200.864 155.147C200.18 155.657 199.478 156.166 198.775 156.692C197.266 167.559 192.209 177.285 184.818 184.676L184.397 185.063C183.098 186.327 181.746 187.52 180.324 188.626C180.236 189.504 180.131 190.382 180.026 191.26C188.856 194.841 197.143 197.65 204.586 199.616C221.457 204.076 233.273 204.409 236.081 199.564C237.574 196.983 236.52 192.928 233.378 187.836C235.923 186.73 238.171 185.045 239.961 182.956C245.035 191.26 246.457 198.475 243.402 203.76C238.452 212.362 223.178 213.275 202.462 207.797C195.282 205.901 187.346 203.233 178.902 199.897C177.585 208.868 175.918 217.067 173.969 224.247C168.351 244.928 159.924 257.726 150.005 257.726C140.086 257.726 131.659 244.928 126.041 224.247C124.093 217.067 122.425 208.868 121.108 199.897C118.053 201.109 115.069 202.232 112.172 203.251C111.944 200.319 111.014 197.598 109.556 195.227C112.927 194.034 116.403 192.717 119.985 191.26C119.879 190.4 119.792 189.522 119.686 188.644C118.124 187.415 116.631 186.098 115.227 184.694L115.192 184.659C107.801 177.268 102.745 167.542 101.235 156.675C100.533 156.166 99.8305 155.639 99.1458 155.13C91.6144 160.994 85.0309 166.769 79.6062 172.229C67.282 184.659 61.0848 194.736 63.8937 199.599C65.4562 202.302 69.81 203.391 76.2706 203.057C76.2179 203.584 76.2003 204.128 76.2003 204.673C76.2003 206.972 76.6392 209.167 77.4117 211.186C67.1064 211.642 59.7505 209.29 56.5905 203.812C51.6397 195.21 58.504 181.516 73.6021 166.331C78.8513 161.064 85.1012 155.516 92.2288 149.881C85.1187 144.245 78.8513 138.698 73.6021 133.431C58.504 118.245 51.6397 104.551 56.5905 95.9667C61.5588 87.3819 76.8324 86.469 97.5483 91.9464C104.729 93.8424 112.664 96.4934 121.108 99.8465C121.582 96.5987 122.109 93.4562 122.671 90.4366C125.111 91.6655 127.85 92.3502 130.764 92.3502H130.922C130.272 95.8087 129.693 99.4427 129.166 103.2C129.956 103.533 130.729 103.884 131.519 104.235C137.224 101.918 143.457 100.637 149.988 100.637C156.518 100.637 162.768 101.918 168.474 104.218C169.246 103.867 170.036 103.533 170.809 103.2C169.492 93.7371 167.789 85.1523 165.77 77.7262C161.206 60.9077 155.588 50.497 149.988 50.497C146.88 50.497 143.755 53.7098 140.823 59.433C138.559 57.9056 135.943 56.8698 133.099 56.5011C137.892 47.2492 143.632 42 150.005 42ZM150.005 121.352C162.4 121.352 172.459 126.057 172.459 131.851C172.459 137.662 162.4 142.349 150.005 142.349C137.611 142.349 127.551 137.644 127.551 131.851C127.551 126.057 137.611 121.352 150.005 121.352ZM127.551 160.748V168.806C131.554 182.991 171.002 180.252 172.459 168.086V160.028C170.493 173.388 130.711 174.354 127.551 160.748ZM127.446 136.907V144.79C131.449 158.641 171.125 156.78 172.582 144.895V137.03C170.598 150.074 130.606 150.197 127.446 136.907ZM127.446 148.511V156.569C131.449 170.755 171.125 168.841 172.582 156.675V148.617C170.598 161.977 130.606 162.117 127.446 148.511ZM150.005 107.676C173.302 107.676 192.192 126.567 192.192 149.863C192.192 173.16 173.302 192.05 150.005 192.05C126.709 192.05 107.818 173.16 107.818 149.863C107.818 126.567 126.709 107.676 150.005 107.676ZM180.324 111.065C181.904 112.294 183.414 113.628 184.818 115.05C192.209 122.441 197.266 132.184 198.775 143.051C199.478 143.561 200.18 144.07 200.864 144.596C208.396 138.733 214.979 132.957 220.404 127.497C232.693 115.12 238.89 105.043 236.099 100.18C233.29 95.3347 221.475 95.6682 204.604 100.127C197.16 102.094 188.874 104.903 180.043 108.502C180.131 109.327 180.236 110.204 180.324 111.065ZM168.421 195.543C162.733 197.843 156.518 199.107 150.023 199.107C143.509 199.107 137.295 197.843 131.607 195.526C130.799 195.877 129.991 196.246 129.184 196.579C130.501 206.042 132.204 214.627 134.222 222.053C138.787 238.871 144.405 249.282 150.023 249.282C155.623 249.282 161.258 238.871 165.805 222.053C167.807 214.627 169.51 206.024 170.826 196.579C170.019 196.246 169.211 195.895 168.421 195.543ZM101.253 143.016C102.762 132.167 107.818 122.423 115.209 115.05L115.631 114.664C116.912 113.417 118.264 112.223 119.669 111.117C119.756 110.24 119.862 109.362 119.967 108.484C111.119 104.903 102.85 102.094 95.4064 100.11C78.5353 95.6507 66.7202 95.3171 63.9112 100.163C61.0848 105.026 67.282 115.103 79.5886 127.479C85.0134 132.939 91.5968 138.715 99.1283 144.579C99.8305 144.052 100.533 143.543 101.253 143.016ZM224.934 159.185C231.377 159.185 236.608 164.417 236.608 170.86C236.608 177.303 231.377 182.535 224.934 182.535C218.491 182.535 213.259 177.303 213.259 170.86C213.259 164.417 218.473 159.185 224.934 159.185ZM94.2302 192.629C100.673 192.629 105.905 197.861 105.905 204.304C105.905 210.747 100.673 215.978 94.2302 215.978C87.7872 215.978 82.5556 210.747 82.5556 204.304C82.5556 197.861 87.7872 192.629 94.2302 192.629ZM130.746 62.6457C137.189 62.6457 142.421 67.8773 142.421 74.3203C142.421 80.7633 137.189 85.995 130.746 85.995C124.303 85.995 119.072 80.7633 119.072 74.3203C119.072 67.8773 124.303 62.6457 130.746 62.6457Z" fill="black"/>
</svg>
