<svg width="300" height="301" viewBox="0 0 300 301" fill="none" xmlns="http://www.w3.org/2000/svg">
<g clip-path="url(#clip0_6679_75)">
<path d="M292.77 177.937L279 172.437C277.117 165.721 274.431 159.256 271 153.182L276.815 139.557C277.631 137.725 277.913 135.7 277.63 133.715C277.347 131.729 276.51 129.864 275.215 128.332C271.374 123.761 267.145 119.53 262.575 115.687C261.047 114.391 259.183 113.552 257.199 113.267C255.215 112.983 253.191 113.263 251.36 114.077L237.73 119.897C231.656 116.471 225.193 113.785 218.48 111.897L212.98 98.1375C212.314 96.555 211.287 95.1507 209.98 94.0375V40.9374C209.98 14.9374 155.885 0.937439 104.98 0.937439C54.075 0.937439 0 14.9374 0 40.9374V220.937C0 246.937 54.095 260.937 105 260.937C107.75 260.937 110.405 260.842 113.085 260.772C113.491 261.783 114.055 262.723 114.755 263.557C118.598 268.127 122.827 272.358 127.395 276.202C128.924 277.497 130.788 278.335 132.771 278.62C134.755 278.905 136.778 278.625 138.61 277.812L152.24 271.992C158.314 275.419 164.777 278.104 171.49 279.992L176.99 293.752C177.729 295.596 178.958 297.203 180.544 298.398C182.131 299.593 184.014 300.331 185.99 300.532C189.105 300.812 192.225 300.947 195.26 300.947C198.295 300.947 201.26 300.812 204.02 300.532C205.997 300.329 207.88 299.589 209.467 298.392C211.053 297.195 212.282 295.587 213.02 293.742L218.52 279.992C225.233 278.104 231.696 275.419 237.77 271.992L251.39 277.807C253.224 278.62 255.249 278.899 257.234 278.614C259.219 278.33 261.084 277.492 262.615 276.197C267.184 272.356 271.413 268.126 275.255 263.557C276.549 262.029 277.386 260.166 277.67 258.183C277.954 256.201 277.673 254.178 276.86 252.347L271.04 238.707C274.458 232.627 277.131 226.157 279 219.437L292.775 213.937C294.607 213.199 296.204 211.976 297.394 210.4C298.584 208.823 299.323 206.952 299.53 204.987C300.128 198.976 300.128 192.919 299.53 186.907C299.324 184.939 298.586 183.065 297.395 181.484C296.204 179.904 294.605 178.678 292.77 177.937ZM105 10.9374C161 10.9374 200 26.7474 200 40.9374C200 55.1274 161 70.9375 105 70.9375C49 70.9375 10 55.1274 10 40.9374C10 26.7474 49 10.9374 105 10.9374ZM10 58.7424C27.955 73.2575 67.34 80.9375 105 80.9375C142.66 80.9375 182.045 73.2575 200 58.7424V91.1725C195.335 90.887 190.656 90.9471 186 91.3525C184.023 91.5559 182.14 92.296 180.553 93.4928C178.967 94.6896 177.738 96.2975 177 98.1425L171.5 111.892C164.787 113.78 158.324 116.466 152.25 119.892L138.63 114.077C136.797 113.259 134.77 112.976 132.783 113.261C130.795 113.546 128.929 114.387 127.4 115.687C122.835 119.532 118.608 123.761 114.765 128.327C114.143 129.059 113.626 129.873 113.23 130.747C110.5 130.827 107.775 130.937 105 130.937C49 130.937 10 115.127 10 100.937V58.7424ZM10 118.742C27.955 133.257 67.34 140.937 105 140.937C107.92 140.937 110.79 140.822 113.66 140.727L118.97 153.167C115.548 159.247 112.872 165.717 111 172.437L97.225 177.937C95.3926 178.676 93.7958 179.899 92.6057 181.475C91.4157 183.052 90.6774 184.923 90.47 186.887C90.35 188.087 90.36 189.297 90.29 190.502C42.07 187.937 10 173.482 10 160.937V118.742ZM113.825 250.742C110.91 250.842 108 250.937 105 250.937C49 250.937 10 235.127 10 220.937V178.407C23.06 189.352 49.295 198.487 90.225 200.487C90.3 201.987 90.3 203.487 90.45 204.987C90.6509 206.964 91.389 208.847 92.5841 210.434C93.7793 212.02 95.386 213.249 97.23 213.987L110.98 219.487C112.863 226.204 115.549 232.669 118.98 238.742L113.825 250.742ZM289.595 204.042C289.56 204.179 289.494 204.306 289.401 204.412C289.308 204.518 289.191 204.6 289.06 204.652L272.97 211.077C272.232 211.372 271.575 211.838 271.054 212.437C270.532 213.036 270.16 213.751 269.97 214.522C268.114 222.002 265.144 229.161 261.16 235.757C260.751 236.436 260.51 237.202 260.455 237.992C260.4 238.782 260.534 239.574 260.845 240.302L267.655 256.267C267.725 256.398 267.757 256.546 267.747 256.694C267.736 256.842 267.683 256.983 267.595 257.102C264.099 261.259 260.252 265.107 256.095 268.602C255.975 268.672 255.839 268.708 255.7 268.708C255.561 268.708 255.425 268.672 255.305 268.602L239.365 261.797C238.637 261.487 237.846 261.354 237.057 261.409C236.268 261.463 235.503 261.705 234.825 262.112C228.233 266.102 221.078 269.077 213.6 270.937C212.829 271.128 212.114 271.499 211.515 272.021C210.916 272.543 210.45 273.2 210.155 273.937L203.735 290.012C203.683 290.156 203.595 290.284 203.478 290.382C203.361 290.48 203.22 290.546 203.07 290.572C197.683 291.068 192.262 291.068 186.875 290.572C186.737 290.539 186.609 290.471 186.504 290.376C186.398 290.281 186.318 290.161 186.27 290.027L179.845 273.937C179.55 273.2 179.084 272.543 178.485 272.021C177.886 271.499 177.171 271.128 176.4 270.937C168.92 269.083 161.761 266.113 155.165 262.127C154.487 261.72 153.722 261.478 152.933 261.424C152.144 261.369 151.353 261.502 150.625 261.812L134.675 268.622C134.542 268.695 134.392 268.726 134.241 268.713C134.091 268.7 133.948 268.642 133.83 268.547C129.682 265.051 125.842 261.203 122.355 257.047C122.286 256.928 122.25 256.793 122.25 256.655C122.25 256.517 122.286 256.382 122.355 256.262L129.16 240.312C129.471 239.584 129.605 238.792 129.55 238.002C129.495 237.212 129.254 236.446 128.845 235.767C124.861 229.171 121.891 222.012 120.035 214.532C119.845 213.761 119.473 213.046 118.951 212.447C118.43 211.848 117.773 211.382 117.035 211.087L100.97 204.672C100.834 204.621 100.712 204.538 100.615 204.431C100.517 204.323 100.447 204.193 100.41 204.052V203.997C99.8725 198.613 99.8725 193.187 100.41 187.802C100.445 187.666 100.511 187.539 100.604 187.433C100.697 187.327 100.814 187.245 100.945 187.192L117.035 180.767C117.773 180.473 118.43 180.007 118.951 179.408C119.473 178.809 119.845 178.094 120.035 177.322C121.891 169.843 124.861 162.684 128.845 156.087C129.254 155.409 129.495 154.643 129.55 153.853C129.605 153.063 129.471 152.271 129.16 151.542L122.345 135.587C122.275 135.457 122.243 135.309 122.253 135.161C122.264 135.013 122.317 134.872 122.405 134.752C125.903 130.598 129.751 126.751 133.905 123.252C134.025 123.184 134.162 123.148 134.3 123.148C134.438 123.148 134.575 123.184 134.695 123.252L150.635 130.057C151.362 130.371 152.153 130.506 152.943 130.451C153.733 130.397 154.498 130.154 155.175 129.742C161.769 125.76 168.924 122.792 176.4 120.937C177.171 120.747 177.886 120.376 178.485 119.854C179.084 119.332 179.55 118.675 179.845 117.937L186.265 101.862C186.317 101.719 186.405 101.591 186.522 101.493C186.639 101.394 186.78 101.329 186.93 101.302C192.317 100.802 197.738 100.802 203.125 101.302C203.263 101.336 203.391 101.404 203.496 101.499C203.602 101.594 203.682 101.714 203.73 101.847L210.155 117.937C210.45 118.675 210.916 119.332 211.515 119.854C212.114 120.376 212.829 120.747 213.6 120.937C221.08 122.792 228.239 125.762 234.835 129.747C235.512 130.158 236.277 130.402 237.067 130.456C237.857 130.511 238.648 130.376 239.375 130.062L255.325 123.252C255.458 123.181 255.609 123.15 255.759 123.163C255.909 123.176 256.052 123.234 256.17 123.327C260.328 126.822 264.176 130.669 267.67 134.827C267.739 134.947 267.775 135.082 267.775 135.22C267.775 135.358 267.739 135.493 267.67 135.612L260.865 151.562C260.554 152.291 260.42 153.083 260.475 153.873C260.53 154.663 260.771 155.429 261.18 156.107C265.164 162.704 268.134 169.863 269.99 177.342C270.18 178.114 270.552 178.829 271.074 179.428C271.595 180.027 272.252 180.493 272.99 180.787L289.055 187.202C289.199 187.258 289.326 187.349 289.425 187.467C289.524 187.585 289.591 187.726 289.62 187.877C290.149 193.26 290.14 198.682 289.595 204.062V204.042Z" fill="black"/>
<path d="M194.999 130.937C182.143 130.937 169.576 134.749 158.887 141.892C148.198 149.034 139.867 159.186 134.947 171.063C130.027 182.94 128.74 196.009 131.248 208.618C133.756 221.227 139.947 232.809 149.037 241.899C158.128 250.99 169.709 257.18 182.318 259.688C194.927 262.196 207.996 260.909 219.873 255.989C231.751 251.07 241.902 242.739 249.045 232.049C256.187 221.36 259.999 208.793 259.999 195.937C259.979 178.704 253.125 162.183 240.939 149.997C228.754 137.812 212.232 130.957 194.999 130.937ZM194.999 250.937C184.121 250.937 173.487 247.712 164.443 241.668C155.398 235.625 148.349 227.035 144.186 216.985C140.023 206.935 138.934 195.876 141.056 185.207C143.178 174.538 148.416 164.738 156.108 157.046C163.8 149.354 173.6 144.116 184.269 141.994C194.938 139.872 205.997 140.961 216.047 145.124C226.097 149.287 234.686 156.336 240.73 165.381C246.773 174.426 249.999 185.059 249.999 195.937C249.982 210.519 244.182 224.498 233.871 234.809C223.56 245.12 209.581 250.92 194.999 250.937Z" fill="black"/>
<path d="M195.001 155.938C187.09 155.938 179.356 158.284 172.778 162.679C166.2 167.074 161.073 173.321 158.046 180.63C155.018 187.939 154.226 195.982 155.77 203.741C157.313 211.501 161.123 218.628 166.717 224.222C172.311 229.816 179.438 233.626 187.197 235.169C194.957 236.713 202.999 235.92 210.308 232.893C217.617 229.865 223.865 224.739 228.26 218.161C232.655 211.583 235.001 203.849 235.001 195.938C234.989 185.333 230.771 175.165 223.272 167.667C215.773 160.168 205.606 155.95 195.001 155.938ZM195.001 225.938C189.068 225.938 183.267 224.178 178.334 220.882C173.4 217.585 169.555 212.9 167.285 207.418C165.014 201.936 164.42 195.904 165.577 190.085C166.735 184.266 169.592 178.92 173.788 174.725C177.983 170.529 183.329 167.672 189.148 166.514C194.968 165.357 201 165.951 206.482 168.221C211.963 170.492 216.649 174.337 219.945 179.271C223.242 184.204 225.001 190.004 225.001 195.938C224.993 203.892 221.83 211.518 216.205 217.142C210.581 222.767 202.955 225.93 195.001 225.938Z" fill="black"/>
<path d="M22.8796 96.4678C24.5546 97.2528 26.3246 98.0078 28.1646 98.7378C29.3912 99.1934 30.7476 99.1499 31.9426 98.6167C33.1376 98.0835 34.0759 97.1032 34.5562 95.886C35.0366 94.6688 35.0206 93.3118 34.5118 92.1063C34.0029 90.9007 33.0418 89.9427 31.8346 89.4378C30.1879 88.7878 28.6162 88.1111 27.1196 87.4078C25.9181 86.8456 24.5426 86.7836 23.2955 87.2355C22.0483 87.6875 21.0318 88.6164 20.4696 89.8178C19.9073 91.0192 19.8454 92.3948 20.2973 93.6419C20.7493 94.8891 21.6781 95.9056 22.8796 96.4678Z" fill="black"/>
<path d="M48.8645 105.038C50.5479 105.434 52.2645 105.808 54.0145 106.158C54.3436 106.224 54.6788 106.256 55.0145 106.253C56.2545 106.254 57.4507 105.794 58.3709 104.963C59.2911 104.132 59.8696 102.989 59.9943 101.755C60.1189 100.521 59.7806 99.2855 59.0452 98.2872C58.3098 97.2889 57.2297 96.5994 56.0145 96.3527C54.3645 96.0227 52.7495 95.6677 51.1645 95.3027C50.5182 95.1329 49.8444 95.0945 49.1829 95.1896C48.5214 95.2847 47.8857 95.5114 47.3134 95.8564C46.741 96.2014 46.2436 96.6576 45.8506 97.1981C45.4576 97.7386 45.1769 98.3524 45.0252 99.0032C44.8734 99.6541 44.8536 100.329 44.9671 100.987C45.0805 101.646 45.3248 102.275 45.6855 102.838C46.0462 103.4 46.5161 103.885 47.0672 104.263C47.6184 104.64 48.2398 104.904 48.8945 105.038H48.8645Z" fill="black"/>
</g>
<defs>
<clipPath id="clip0_6679_75">
<rect width="300" height="300" fill="white" transform="translate(0 0.9375)"/>
</clipPath>
</defs>
</svg>
