<svg width="300" height="300" viewBox="0 0 300 300" fill="none" xmlns="http://www.w3.org/2000/svg">
<path d="M202.154 63.2739C179.048 63.2739 155.695 71.4506 155.695 86.9986V96.8478C159.844 97.039 163.98 97.4525 168.084 98.0867V86.9986C168.084 82.9723 181.031 75.6009 202.154 75.6009C223.277 75.6009 236.223 83.0342 236.223 86.9986V150.987C236.223 154.332 227.179 159.907 212.065 161.704V174.093C231.453 172.11 248.612 164.181 248.612 150.863V86.9986C248.612 71.4506 225.259 63.2739 202.154 63.2739Z" fill="black"/>
<path d="M62.7776 150.986V86.9971C62.7776 82.9707 75.7239 75.5993 96.847 75.5993C117.97 75.5993 130.916 83.0327 130.916 86.9971V98.0852C135.021 97.451 139.157 97.0374 143.305 96.8463V86.9971C143.305 71.3871 119.952 63.2104 96.847 63.2104C73.7417 63.2104 50.3887 71.4491 50.3887 86.9971V150.986C50.3887 164.366 67.5473 172.233 86.9359 174.277V161.888C71.8214 159.906 62.7776 154.331 62.7776 150.986Z" fill="black"/>
<path d="M149.5 105.21C118.961 105.21 95.918 116.856 95.918 132.342V208.596C95.918 224.082 118.961 235.727 149.5 235.727C180.039 235.727 203.082 224.082 203.082 208.596V132.342C203.082 116.856 180.039 105.21 149.5 105.21ZM190.693 152.722C185.428 158.916 169.508 165.111 149.5 165.111C141.131 165.197 132.791 164.113 124.722 161.89V170.934C132.83 172.923 141.152 173.901 149.5 173.845C163.854 174.427 178.095 171.086 190.693 164.182V183.508C185.428 189.703 169.508 195.897 149.5 195.897C141.128 195.964 132.788 194.859 124.722 192.614V201.658C132.83 203.647 141.152 204.625 149.5 204.569C163.854 205.152 178.095 201.811 190.693 194.906V209.091C190.693 214.976 174.278 223.834 149.5 223.834C124.722 223.834 108.307 214.976 108.307 209.091V132.342C108.307 126.457 124.722 117.599 149.5 117.599C174.278 117.599 190.693 126.457 190.693 132.342V152.722Z" fill="black"/>
</svg>
