<svg width="300" height="300" viewBox="0 0 300 300" fill="none" xmlns="http://www.w3.org/2000/svg">
<path d="M63.0102 177.185L63.0112 177.141V177.098C63.0112 136.248 90.1578 108.904 115.488 83.5719C115.489 83.5712 115.49 83.5705 115.49 83.5697L115.743 83.3177C124.013 75.069 132.299 66.8044 139.099 58.3438C143.494 52.8749 147.358 47.2167 150.237 41.2915C153.119 47.2117 156.971 52.868 161.354 58.3389C168.202 66.8882 176.555 75.2346 184.916 83.5736C210.246 108.905 237.392 136.249 237.392 177.098V177.141L237.392 177.184C237.42 178.451 237.42 179.717 237.392 180.983C236.344 229.138 196.457 267.324 148.302 266.275C100.148 265.227 61.9614 225.339 63.0102 177.185ZM89.307 161.004C85.4529 159.975 85.4526 159.976 85.4524 159.977L85.4517 159.979L85.4502 159.985L85.4459 160.002L85.4324 160.053C85.4265 160.076 85.4195 160.103 85.4114 160.135C85.4043 160.163 85.3963 160.194 85.3876 160.229C85.3502 160.378 85.2983 160.59 85.2355 160.859C85.11 161.397 84.9405 162.165 84.7562 163.12C84.3882 165.025 83.9564 167.693 83.6986 170.767C83.193 176.794 83.3069 184.903 86.3443 191.849L86.3684 191.904L86.3942 191.958L86.7837 192.78L86.8298 192.878L86.881 192.972C87.4515 194.026 88.0524 195.092 88.7147 196.138C88.741 196.183 88.7763 196.241 88.82 196.313C88.9074 196.455 89.0297 196.65 89.1817 196.88C89.4808 197.332 89.9182 197.956 90.4526 198.599C90.97 199.221 91.6761 199.98 92.5287 200.615C93.3156 201.201 94.6847 202.027 96.4456 202.027H97.2242H97.7171L98.1953 201.907C99.117 201.676 99.9749 201.24 100.705 200.631C101.419 200.036 101.993 199.291 102.386 198.45C104.202 194.718 106.419 191.196 108.997 187.945L116.487 179.214L137.785 155.584L137.791 155.579L137.796 155.573C138.833 154.413 139.406 152.912 139.406 151.356C139.406 149.8 138.833 148.299 137.796 147.139L137.736 147.072L137.673 147.007L117.252 126.154L117.237 126.139L117.223 126.124L112.896 121.798L109.853 118.755L107.049 122.019C103.409 126.257 100.025 130.708 96.9148 135.349C91.7094 142.835 87.833 151.162 85.4558 159.964L85.4529 159.975L89.307 161.004ZM151.239 249.142L151.25 249.142H151.261L151.348 249.142L151.359 249.142C155.991 249.129 160.574 248.204 164.849 246.42C169.123 244.636 173.004 242.027 176.269 238.743C179.535 235.459 182.122 231.563 183.883 227.279C185.643 222.998 186.542 218.411 186.53 213.782C186.538 206.659 184.367 199.706 180.311 193.855C179.826 192.985 179.267 192.158 178.64 191.384C171.841 182.874 164.924 175.131 154.43 163.942L151.393 160.704L148.497 164.069C144.15 169.12 139.967 173.571 135.994 177.793L135.817 177.981C131.944 182.097 128.239 186.035 124.883 190.019C120.355 195.114 117.389 201.404 116.338 208.14C115.285 214.894 116.202 221.809 118.98 228.055C121.759 234.3 126.28 239.612 132.002 243.353C137.723 247.093 144.403 249.103 151.239 249.142ZM214.256 196.194L214.257 196.189C216.168 190.019 217.177 183.605 217.25 177.146L217.25 177.106L217.25 177.066C217.12 162.16 212.443 147.648 203.843 135.472L203.835 135.46L203.826 135.448C194.055 121.826 182.956 109.208 170.691 97.7798C170.352 97.4399 170.012 97.1001 169.672 96.7605C164.082 91.1737 158.526 85.62 153.317 79.8495L150.363 76.5784L147.402 79.8416C142.381 85.3737 137.051 90.7052 131.683 96.0724C129.514 98.1663 127.883 100.754 126.929 103.614C126.008 106.38 125.746 109.321 126.162 112.203V112.721V113.375L126.371 113.994C127.015 115.907 127.936 117.715 129.106 119.36L129.152 119.423L129.199 119.485C129.246 119.546 129.289 119.609 129.326 119.676L129.527 120.027L129.795 120.331C135.104 126.365 140.716 132.126 146.609 137.592L174.261 166.282L174.263 166.283L182.611 174.935L182.614 174.939C189.274 181.824 195.3 189.295 200.619 197.261C201.77 199.181 203.578 200.621 205.71 201.313L206.31 201.507H206.94H207.548H207.864L208.176 201.458C209.579 201.234 210.892 200.623 211.966 199.693C213.041 198.762 213.834 197.551 214.256 196.194Z" fill="black" stroke="#323232" stroke-width="7.97824"/>
</svg>
