<svg width="300" height="300" viewBox="0 0 300 300" fill="none" xmlns="http://www.w3.org/2000/svg">
<path d="M240.11 266.829H171.608C170.967 266.83 170.332 266.703 169.74 266.458C169.148 266.212 168.611 265.851 168.159 265.397L108.045 204.981C107.137 204.067 106.628 202.831 106.628 201.542C106.628 200.254 107.137 199.017 108.045 198.103L168.169 137.814C169.085 136.895 170.329 136.376 171.627 136.372H240.11C241.068 136.381 242.001 136.671 242.795 137.206C243.59 137.741 244.209 138.497 244.578 139.381C244.946 140.265 245.047 141.238 244.867 142.178C244.688 143.119 244.236 143.986 243.569 144.673L186.963 201.552L243.569 258.509C244.252 259.191 244.718 260.06 244.906 261.007C245.095 261.954 244.997 262.936 244.627 263.828C244.256 264.719 243.629 265.481 242.825 266.015C242.021 266.55 241.076 266.833 240.11 266.829ZM173.634 257.086H228.399L176.635 205.001C175.728 204.088 175.218 202.853 175.218 201.566C175.218 200.279 175.728 199.045 176.635 198.132L228.389 146.124H173.644L118.373 201.552L173.634 257.086ZM94.2394 189.334C93.5985 189.335 92.9638 189.208 92.3719 188.962C91.78 188.717 91.2425 188.356 90.7904 187.902L56.4174 153.354C55.5095 152.439 55 151.203 55 149.914C55 148.626 55.5095 147.39 56.4174 146.475L168.042 34.4319C169.26 33.214 170.965 32.7756 172.514 33.1068H239.964C240.921 33.1161 241.855 33.4062 242.649 33.9412C243.443 34.4762 244.063 35.2325 244.431 36.1164C244.8 37.0003 244.9 37.9729 244.721 38.9135C244.542 39.8541 244.09 40.7214 243.423 41.4078L97.6981 187.902C97.2445 188.357 96.7054 188.718 96.1118 188.964C95.5182 189.209 94.8818 189.335 94.2394 189.334ZM66.7449 149.914L94.2491 177.555L228.243 42.8497H173.4L66.7449 149.914Z" fill="black"/>
</svg>
