<svg width="300" height="300" viewBox="0 0 300 300" fill="none" xmlns="http://www.w3.org/2000/svg">
<path d="M282.847 206.77H270.945V68.6572C270.945 61.1222 264.823 55 257.288 55H42.7119C35.1769 55 29.0547 61.1222 29.0547 68.6572V206.727H17.1528C14.8409 206.77 13 208.611 13 210.923C13 229.247 27.8988 244.146 46.2225 244.146H253.778C272.101 244.146 287 229.247 287 210.923C287 208.611 285.159 206.77 282.847 206.77ZM37.3603 68.6572C37.3603 65.6603 39.715 63.3056 42.7119 63.3056H257.245C260.242 63.3056 262.597 65.6603 262.597 68.6572V206.727H37.3603V68.6572ZM253.778 235.84H46.2225C33.8925 235.84 23.6603 226.849 21.6481 215.076H278.352C276.383 226.849 266.108 235.84 253.778 235.84Z" fill="black"/>
<path d="M242.945 73.7515H57.0532C54.7413 73.7515 52.9004 75.5924 52.9004 77.9043V192.385C52.9004 194.697 54.7413 196.538 57.0532 196.538H242.902C245.214 196.538 247.055 194.697 247.055 192.385V77.9043C247.098 75.5924 245.214 73.7515 242.945 73.7515ZM238.792 188.232H61.206V82.0571H238.749V188.232H238.792Z" fill="black"/>
<path d="M119.476 164.515C120.246 165.114 121.145 165.414 122.044 165.414C123.286 165.414 124.485 164.857 125.298 163.83C126.711 162.031 126.411 159.42 124.613 158.007L96.8278 136.001L125.983 112.198C127.781 110.742 128.038 108.131 126.583 106.375C125.127 104.577 122.515 104.32 120.76 105.776L87.5803 132.833C86.5956 133.647 86.0391 134.803 86.0391 136.087C86.0391 137.329 86.6384 138.527 87.6231 139.298L119.476 164.515ZM203.174 136.001L175.389 158.007C173.591 159.42 173.291 162.031 174.704 163.83C175.517 164.857 176.759 165.414 177.957 165.414C178.857 165.414 179.756 165.114 180.526 164.515L212.379 139.298C213.363 138.527 213.963 137.329 213.963 136.087C213.963 134.846 213.406 133.647 212.422 132.833L179.242 105.776C177.444 104.32 174.832 104.577 173.419 106.375C171.964 108.173 172.221 110.785 174.019 112.198L203.174 136.001ZM138.313 168.111C138.784 168.282 139.212 168.368 139.683 168.368C141.396 168.368 142.98 167.297 143.579 165.585L164.001 107.446C164.771 105.262 163.615 102.907 161.475 102.137C159.291 101.366 156.937 102.522 156.166 104.663L135.744 162.802C135.017 164.986 136.173 167.34 138.313 168.111Z" fill="black"/>
</svg>
