<svg width="300" height="300" viewBox="0 0 300 300" fill="none" xmlns="http://www.w3.org/2000/svg">
<path d="M252.91 193.999C253.967 195.833 254.254 198.01 253.708 200.055C253.163 202.1 251.829 203.845 250 204.909L154 260.909C152.777 261.623 151.386 261.998 149.97 261.998C148.554 261.998 147.163 261.623 145.94 260.909L49.94 204.909C48.1369 203.826 46.8332 202.076 46.311 200.038C45.7888 198 46.0902 195.839 47.15 194.022C48.2098 192.205 49.9426 190.878 51.9733 190.329C54.004 189.78 56.1692 190.053 58 191.089L150 244.739L242 191.089C243.834 190.033 246.011 189.746 248.056 190.291C250.101 190.836 251.846 192.17 252.91 193.999ZM242 143.089L150 196.739L58 143.089C56.1784 142.182 54.0797 142.004 52.1311 142.589C50.1824 143.175 48.5302 144.482 47.5107 146.243C46.4913 148.004 46.1813 150.087 46.6437 152.069C47.1062 154.05 48.3064 155.781 50 156.909L146 212.909C147.223 213.623 148.614 213.998 150.03 213.998C151.446 213.998 152.837 213.623 154.06 212.909L250.06 156.909C250.982 156.388 251.791 155.688 252.441 154.851C253.09 154.014 253.567 153.056 253.843 152.034C254.12 151.011 254.19 149.944 254.051 148.893C253.912 147.843 253.565 146.831 253.031 145.916C252.497 145.001 251.787 144.201 250.942 143.562C250.097 142.924 249.133 142.46 248.106 142.197C247.08 141.934 246.012 141.877 244.964 142.03C243.915 142.184 242.908 142.544 242 143.089ZM46 101.999C46.0032 100.598 46.3744 99.2222 47.0763 98.0095C47.7783 96.7968 48.7865 95.7898 50 95.0892L146 39.0892C147.223 38.3759 148.614 38 150.03 38C151.446 38 152.837 38.3759 154.06 39.0892L250.06 95.0892C251.268 95.7938 252.27 96.8025 252.966 98.0149C253.662 99.2273 254.029 100.601 254.029 101.999C254.029 103.397 253.662 104.771 252.966 105.983C252.27 107.196 251.268 108.205 250.06 108.909L154.06 164.909C152.837 165.623 151.446 165.998 150.03 165.998C148.614 165.998 147.223 165.623 146 164.909L50 108.909C48.7865 108.209 47.7783 107.202 47.0763 105.989C46.3744 104.776 46.0032 103.4 46 101.999ZM69.88 101.999L150 148.739L230.12 101.999L150 55.2592L69.88 101.999Z" fill="black"/>
</svg>
