<svg width="300" height="300" viewBox="0 0 300 300" fill="none" xmlns="http://www.w3.org/2000/svg">
<path fill-rule="evenodd" clip-rule="evenodd" d="M50.3305 210.52H43.3458V117.185H50.3305V210.52ZM46.7387 94.3054C43.7932 94.3054 41.3574 91.9689 41.3574 89.0234C41.3574 85.991 43.7808 83.6421 46.7387 83.6421C49.7712 83.6421 52.1822 85.9786 52.1822 89.0234C52.1822 91.9689 49.7712 94.3054 46.7387 94.3054Z" fill="black"/>
<path fill-rule="evenodd" clip-rule="evenodd" d="M118.171 212.342C84.0189 212.342 62.4434 187.472 62.4434 147.94C62.4434 108.605 84.1184 83.6372 118.171 83.6372C152.224 83.6372 173.887 108.606 173.887 147.94C173.887 187.474 152.312 212.342 118.171 212.342ZM118.171 90.0612C88.4439 90.0612 69.4658 112.506 69.4658 147.938C69.4658 183.396 88.5311 205.929 118.171 205.929C147.899 205.929 166.877 183.396 166.877 147.938C166.877 112.494 147.899 90.0612 118.171 90.0612Z" fill="black"/>
<path fill-rule="evenodd" clip-rule="evenodd" d="M223.623 212.342C197.984 212.342 179.602 197.863 178.559 177.158H185.407C186.451 194.135 202.396 206.016 224.145 206.016C245.371 206.016 260.186 193.961 260.186 177.68C260.186 164.58 251.35 157.049 230.384 151.766L215.569 148.125C192.44 142.222 181.939 132.863 181.939 117.191C181.939 97.6913 200.145 83.6479 222.939 83.6479C246.503 83.6479 264.1 97.5177 264.884 115.887H258.036C257.079 100.899 242.439 89.974 222.765 89.974C203.949 89.974 188.96 101.246 188.96 117.017C188.96 129.507 198.144 136.691 218.24 141.712L232.197 145.266C256.37 151.244 267.207 160.528 267.207 177.156C267.207 197.861 249.794 212.341 223.621 212.341L223.623 212.342Z" fill="black"/>
</svg>
