<svg width="300" height="300" viewBox="0 0 300 300" fill="none" xmlns="http://www.w3.org/2000/svg">
<path d="M135.5 271.5V276H66.5C63.7152 276 61.0445 274.894 59.0754 272.925C57.1062 270.955 56 268.285 56 265.5V160.5C56 157.715 57.1062 155.045 59.0754 153.075C61.0445 151.106 63.7152 150 66.5 150H129.5C132.285 150 134.955 151.106 136.925 153.075C138.894 155.045 140 157.715 140 160.5V271.5H135.5ZM135.5 271.5V160.5C135.5 158.909 134.868 157.383 133.743 156.257C132.617 155.132 131.091 154.5 129.5 154.5H66.5C64.9087 154.5 63.3826 155.132 62.2574 156.257C61.1321 157.383 60.5 158.909 60.5 160.5V265.5C60.5 267.091 61.1321 268.617 62.2574 269.743L59.0809 272.919L62.2574 269.743C63.3826 270.868 64.9087 271.5 66.5 271.5H135.5ZM238.743 30.2574L241.925 27.0754L238.743 30.2574C239.868 31.3826 240.5 32.9087 240.5 34.5V265.5C240.5 267.091 239.868 268.617 238.743 269.743L241.925 272.925L238.743 269.743C237.617 270.868 236.091 271.5 234.5 271.5H202.25V97.5C202.25 92.1294 200.117 86.9787 196.319 83.1811C192.521 79.3835 187.371 77.25 182 77.25H165.5V34.5C165.5 32.9087 166.132 31.3826 167.257 30.2574C168.383 29.1321 169.909 28.5 171.5 28.5H234.5C236.091 28.5 237.617 29.1321 238.743 30.2574ZM113 140.25V97.5C113 95.9087 113.632 94.3826 114.757 93.2574C115.883 92.1321 117.409 91.5 119 91.5H182C183.591 91.5 185.117 92.1321 186.243 93.2574C187.368 94.3826 188 95.9087 188 97.5V271.5H149.75V160.5C149.75 155.129 147.617 149.979 143.819 146.181C140.021 142.383 134.871 140.25 129.5 140.25H113Z" stroke="black" stroke-width="9"/>
</svg>
