<svg width="300" height="300" viewBox="0 0 300 300" fill="none" xmlns="http://www.w3.org/2000/svg">
<path d="M263.579 155.64C264.943 155.64 266.25 155.098 267.214 154.134C268.178 153.17 268.719 151.863 268.719 150.5C268.719 149.137 268.178 147.829 267.214 146.865C266.25 145.901 264.943 145.36 263.579 145.36H253.299V72.6699C256.806 71.7706 260.012 69.9595 262.593 67.4204C265.173 64.8813 267.036 61.7047 267.991 58.213C268.947 54.7213 268.962 51.0389 268.034 47.5396C267.107 44.0403 265.27 40.8488 262.71 38.289C260.15 35.7291 256.959 33.8922 253.459 32.9647C249.96 32.0371 246.278 32.052 242.786 33.0077C239.294 33.9635 236.118 35.8261 233.579 38.4065C231.04 40.9869 229.228 44.1931 228.329 47.6998H155.639V37.4198C155.639 36.0566 155.098 34.7492 154.134 33.7853C153.17 32.8213 151.863 32.2798 150.499 32.2798C149.136 32.2798 147.829 32.8213 146.865 33.7853C145.901 34.7492 145.359 36.0566 145.359 37.4198V47.6998H72.6694C71.7701 44.1931 69.959 40.9869 67.4199 38.4065C64.8808 35.8261 61.7042 33.9635 58.2125 33.0077C54.7208 32.052 51.0384 32.0371 47.5391 32.9647C44.0399 33.8922 40.8483 35.7291 38.2885 38.289C35.7287 40.8488 33.8917 44.0403 32.9642 47.5396C32.0366 51.0389 32.0515 54.7213 33.0072 58.213C33.963 61.7047 35.8256 64.8813 38.406 67.4204C40.9864 69.9595 44.1926 71.7706 47.6993 72.6699V145.36H37.4193C36.0561 145.36 34.7487 145.901 33.7848 146.865C32.8208 147.829 32.2793 149.137 32.2793 150.5C32.2793 151.863 32.8208 153.17 33.7848 154.134C34.7487 155.098 36.0561 155.64 37.4193 155.64H47.6993V228.33C44.1926 229.229 40.9864 231.04 38.406 233.579C35.8256 236.118 33.963 239.295 33.0072 242.787C32.0515 246.278 32.0366 249.961 32.9642 253.46C33.8917 256.959 35.7287 260.151 38.2885 262.711C40.8483 265.27 44.0399 267.107 47.5391 268.035C51.0384 268.962 54.7208 268.948 58.2125 267.992C61.7042 267.036 64.8808 265.173 67.4199 262.593C69.959 260.013 71.7701 256.806 72.6694 253.3H145.359V263.58C145.359 264.943 145.901 266.25 146.865 267.214C147.829 268.178 149.136 268.72 150.499 268.72C151.863 268.72 153.17 268.178 154.134 267.214C155.098 266.25 155.639 264.943 155.639 263.58V253.3H228.329C229.228 256.806 231.04 260.013 233.579 262.593C236.118 265.173 239.294 267.036 242.786 267.992C246.278 268.948 249.96 268.962 253.459 268.035C256.959 267.107 260.15 265.27 262.71 262.711C265.27 260.151 267.107 256.959 268.034 253.46C268.962 249.961 268.947 246.278 267.991 242.787C267.036 239.295 265.173 236.118 262.593 233.579C260.012 231.04 256.806 229.229 253.299 228.33V155.64H263.579ZM228.329 243.02H72.6694C71.7488 239.486 69.9022 236.261 67.3199 233.679C64.7376 231.097 61.5132 229.25 57.9793 228.33V72.6699C61.5132 71.7493 64.7376 69.9027 67.3199 67.3204C69.9022 64.7381 71.7488 61.5137 72.6694 57.9798H228.329C229.25 61.5137 231.096 64.7381 233.679 67.3204C236.261 69.9027 239.485 71.7493 243.019 72.6699V228.33C239.485 229.25 236.261 231.097 233.679 233.679C231.096 236.261 229.25 239.486 228.329 243.02ZM248.159 42.5598C250.192 42.5598 252.18 43.1627 253.871 44.2923C255.561 45.4219 256.879 47.0274 257.657 48.9058C258.435 50.7842 258.638 52.8512 258.242 54.8453C257.845 56.8394 256.866 58.6712 255.428 60.1088C253.991 61.5465 252.159 62.5256 250.165 62.9223C248.171 63.3189 246.104 63.1153 244.225 62.3373C242.347 61.5592 240.741 60.2416 239.612 58.551C238.482 56.8605 237.879 54.873 237.879 52.8398C237.882 50.1143 238.967 47.5014 240.894 45.5742C242.821 43.647 245.434 42.563 248.159 42.5598ZM42.5593 52.8398C42.5593 50.8066 43.1622 48.8191 44.2918 47.1285C45.4214 45.438 47.0269 44.1204 48.9053 43.3423C50.7837 42.5642 52.8507 42.3607 54.8448 42.7573C56.839 43.154 58.6707 44.133 60.1084 45.5707C61.546 47.0084 62.5251 48.8401 62.9218 50.8343C63.3184 52.8284 63.1148 54.8953 62.3368 56.7738C61.5587 58.6522 60.2411 60.2577 58.5506 61.3873C56.86 62.5169 54.8725 63.1198 52.8393 63.1198C50.1138 63.1166 47.5009 62.0325 45.5737 60.1053C43.6466 58.1782 42.5625 55.5652 42.5593 52.8398ZM52.8393 258.44C50.8061 258.44 48.8186 257.837 47.128 256.707C45.4375 255.578 44.1199 253.972 43.3418 252.094C42.5637 250.215 42.3602 248.148 42.7568 246.154C43.1535 244.16 44.1326 242.328 45.5702 240.891C47.0079 239.453 48.8396 238.474 50.8338 238.077C52.8279 237.681 54.8949 237.884 56.7733 238.662C58.6517 239.44 60.2572 240.758 61.3868 242.449C62.5164 244.139 63.1193 246.127 63.1193 248.16C63.1161 250.885 62.032 253.498 60.1049 255.425C58.1777 257.353 55.5648 258.437 52.8393 258.44ZM258.439 248.16C258.439 250.193 257.836 252.181 256.707 253.871C255.577 255.562 253.972 256.879 252.093 257.657C250.215 258.435 248.148 258.639 246.154 258.242C244.16 257.846 242.328 256.867 240.89 255.429C239.453 253.991 238.473 252.159 238.077 250.165C237.68 248.171 237.884 246.104 238.662 244.226C239.44 242.347 240.757 240.742 242.448 239.612C244.139 238.483 246.126 237.88 248.159 237.88C250.885 237.883 253.498 238.967 255.425 240.894C257.352 242.821 258.436 245.434 258.439 248.16Z" fill="black"/>
<path d="M220.486 128.359C221.93 124.519 222.456 120.394 222.023 116.314C221.589 112.235 220.208 108.313 217.989 104.862C215.77 101.41 212.775 98.5259 209.244 96.4379C205.712 94.35 201.741 93.1165 197.648 92.836C197.274 87.4998 195.275 82.4059 191.921 78.2387C188.567 74.0715 184.018 71.0306 178.885 69.5245C173.752 68.0183 168.282 68.1192 163.208 69.8134C158.134 71.5077 153.7 74.7142 150.502 79.0022C147.303 74.7143 142.87 71.5078 137.796 69.8136C132.722 68.1194 127.251 68.0185 122.118 69.5246C116.985 71.0307 112.436 74.0716 109.082 78.2388C105.728 82.406 103.73 87.4998 103.356 92.836C99.2624 93.1166 95.2915 94.3501 91.7599 96.4381C88.2282 98.5261 85.2335 101.411 83.0147 104.862C80.796 108.313 79.4146 112.235 78.981 116.314C78.5473 120.394 79.0733 124.519 80.517 128.359C76.8153 130.747 73.7713 134.025 71.6634 137.893C69.5556 141.76 68.4512 146.095 68.4512 150.5C68.4512 154.905 69.5556 159.24 71.6634 163.108C73.7713 166.976 76.8153 170.253 80.517 172.641C79.0732 176.482 78.5472 180.606 78.9809 184.686C79.4145 188.766 80.7958 192.688 83.0146 196.139C85.2333 199.59 88.2281 202.475 91.7598 204.563C95.2915 206.651 99.2624 207.884 103.356 208.165C103.73 213.501 105.728 218.595 109.082 222.762C112.436 226.929 116.985 229.97 122.118 231.476C127.251 232.982 132.722 232.881 137.796 231.187C142.87 229.493 147.304 226.286 150.502 221.998C153.7 226.286 158.134 229.492 163.207 231.187C168.281 232.881 173.752 232.982 178.885 231.476C184.018 229.97 188.567 226.929 191.921 222.762C195.275 218.595 197.273 213.501 197.648 208.165C201.741 207.884 205.712 206.65 209.243 204.562C212.775 202.474 215.77 199.59 217.989 196.139C220.207 192.688 221.589 188.766 222.022 184.686C222.456 180.606 221.93 176.482 220.486 172.641C224.188 170.253 227.232 166.976 229.34 163.108C231.448 159.24 232.552 154.905 232.552 150.5C232.552 146.095 231.448 141.76 229.34 137.893C227.232 134.025 224.188 130.747 220.486 128.359ZM129.475 222.46C125.996 222.421 122.626 221.245 119.878 219.112C117.13 216.978 115.156 214.004 114.257 210.643C113.357 207.283 113.582 203.72 114.896 200.499C116.211 197.278 118.543 194.576 121.537 192.804C122.121 192.466 122.633 192.017 123.043 191.481C123.453 190.945 123.754 190.334 123.928 189.681C124.102 189.029 124.145 188.349 124.056 187.68C123.967 187.011 123.747 186.367 123.409 185.783C117.055 177.494 106.747 192.003 104.847 197.92C100.644 197.894 96.6226 196.202 93.6642 193.217C90.7058 190.231 89.0516 186.194 89.0641 181.991C89.0766 177.788 90.7548 173.761 93.731 170.793C96.7071 167.825 100.738 166.157 104.942 166.156C105.617 166.156 106.285 166.023 106.909 165.765C107.533 165.507 108.099 165.128 108.577 164.651C109.054 164.174 109.433 163.607 109.691 162.983C109.949 162.36 110.082 161.691 110.082 161.016C108.735 150.027 90.1796 158.849 86.0959 163.955C83.8205 162.524 81.9452 160.539 80.6455 158.186C79.3458 155.833 78.664 153.188 78.664 150.5C78.664 147.812 79.3458 145.168 80.6455 142.815C81.9452 140.462 83.8205 138.477 86.0959 137.045C90.1678 142.15 108.74 150.971 110.082 139.985C110.082 139.31 109.949 138.641 109.691 138.017C109.433 137.394 109.054 136.827 108.577 136.35C108.1 135.872 107.533 135.494 106.909 135.235C106.285 134.977 105.617 134.844 104.942 134.844C100.768 134.799 96.779 133.112 93.8389 130.149C90.8988 127.185 89.2435 123.183 89.231 119.009C89.2186 114.835 90.85 110.823 93.7725 107.842C96.6949 104.861 100.673 103.151 104.847 103.081C106.731 108.983 117.05 123.503 123.409 115.219C123.747 114.635 123.967 113.99 124.056 113.32C124.145 112.651 124.102 111.971 123.928 111.319C123.754 110.667 123.453 110.055 123.043 109.519C122.632 108.983 122.12 108.533 121.536 108.195C119.121 106.802 117.115 104.797 115.719 102.383C114.324 99.968 113.589 97.2288 113.588 94.4402C113.587 91.6515 114.32 88.9118 115.714 86.4962C117.107 84.0807 119.112 82.0745 121.526 80.6792C123.941 79.2839 126.68 78.5488 129.469 78.5477C132.257 78.5466 134.997 79.2795 137.413 80.6728C139.828 82.0661 141.834 84.0707 143.23 86.4851C144.625 88.8996 145.36 91.6387 145.362 94.4274C145.395 95.0349 145.25 118.699 145.433 119.309C145.295 120.046 145.295 180.944 145.433 181.692C145.223 182.155 145.435 206.104 145.362 206.573C145.357 210.785 143.681 214.823 140.703 217.801C137.725 220.78 133.687 222.455 129.475 222.46ZM214.907 163.955C210.835 158.85 192.264 150.029 190.921 161.016C190.921 161.691 191.054 162.359 191.312 162.983C191.57 163.607 191.949 164.173 192.426 164.651C192.904 165.128 193.471 165.507 194.094 165.765C194.718 166.023 195.386 166.156 196.062 166.156C200.236 166.201 204.224 167.888 207.164 170.852C210.105 173.815 211.76 177.817 211.772 181.991C211.785 186.166 210.153 190.177 207.231 193.158C204.308 196.139 200.33 197.85 196.156 197.92C194.277 192.013 183.932 177.492 177.595 185.782C177.256 186.366 177.036 187.011 176.947 187.68C176.858 188.349 176.902 189.029 177.076 189.681C177.249 190.333 177.55 190.945 177.961 191.481C178.371 192.017 178.883 192.467 179.467 192.805C181.883 194.198 183.889 196.203 185.284 198.618C186.679 201.032 187.414 203.771 187.415 206.56C187.416 209.349 186.683 212.089 185.29 214.504C183.896 216.92 181.892 218.926 179.477 220.321C177.063 221.716 174.323 222.451 171.535 222.453C168.746 222.454 166.006 221.721 163.591 220.327C161.175 218.934 159.169 216.93 157.773 214.515C156.378 212.101 155.643 209.362 155.642 206.573C155.611 205.973 155.752 182.295 155.571 181.692C155.708 180.955 155.708 120.056 155.571 119.309C155.777 118.811 155.571 94.9208 155.642 94.4263C155.643 91.6377 156.378 88.8987 157.774 86.4844C159.169 84.07 161.176 82.0656 163.591 80.6724C166.007 79.2792 168.747 78.5465 171.535 78.5477C174.324 78.5489 177.063 79.2841 179.478 80.6795C181.892 82.0748 183.897 84.081 185.29 86.4966C186.683 88.9121 187.416 91.6518 187.415 94.4404C187.414 97.229 186.679 99.9682 185.284 102.383C183.889 104.797 181.883 106.802 179.467 108.195C178.51 108.776 177.767 109.652 177.35 110.691C176.934 111.73 176.866 112.877 177.157 113.958C177.448 115.039 178.082 115.997 178.964 116.686C179.846 117.376 180.928 117.761 182.047 117.782C185.392 116.618 188.413 114.679 190.865 112.124C193.317 109.569 195.13 106.47 196.156 103.081C200.359 103.107 204.381 104.798 207.339 107.784C210.298 110.77 211.952 114.806 211.939 119.01C211.927 123.213 210.248 127.24 207.272 130.208C204.296 133.176 200.265 134.843 196.062 134.844C195.387 134.844 194.718 134.977 194.094 135.235C193.471 135.493 192.904 135.872 192.427 136.349C191.949 136.827 191.571 137.393 191.312 138.017C191.054 138.641 190.921 139.309 190.922 139.984C192.269 150.974 210.824 142.152 214.907 137.045C217.183 138.477 219.058 140.462 220.358 142.815C221.658 145.168 222.339 147.812 222.339 150.5C222.339 153.188 221.658 155.833 220.358 158.186C219.058 160.539 217.183 162.524 214.907 163.955Z" fill="black"/>
</svg>
