<svg width="300" height="300" viewBox="0 0 300 300" fill="none" xmlns="http://www.w3.org/2000/svg">
<g clip-path="url(#clip0_6675_650)">
<path d="M225.002 185C217.091 185 209.357 187.346 202.779 191.741C196.201 196.137 191.074 202.384 188.047 209.693C185.019 217.002 184.227 225.045 185.771 232.804C187.314 240.563 191.124 247.69 196.718 253.285C202.312 258.879 209.439 262.688 217.198 264.232C224.958 265.775 233 264.983 240.309 261.955C247.618 258.928 253.866 253.801 258.261 247.223C262.656 240.645 265.002 232.911 265.002 225C264.99 214.395 260.772 204.228 253.273 196.729C245.774 189.23 235.607 185.012 225.002 185ZM225.002 255C219.069 255 213.268 253.241 208.335 249.944C203.401 246.648 199.556 241.963 197.286 236.481C195.015 230.999 194.421 224.967 195.578 219.148C196.736 213.328 199.593 207.983 203.789 203.787C207.984 199.591 213.33 196.734 219.149 195.577C224.969 194.419 231.001 195.013 236.482 197.284C241.964 199.554 246.65 203.4 249.946 208.333C253.243 213.267 255.002 219.067 255.002 225C254.994 232.954 251.831 240.58 246.206 246.205C240.582 251.829 232.956 254.992 225.002 255Z" fill="black"/>
<path d="M225 205C221.044 205 217.178 206.173 213.889 208.37C210.6 210.568 208.036 213.692 206.522 217.346C205.009 221.001 204.613 225.022 205.384 228.902C206.156 232.781 208.061 236.345 210.858 239.142C213.655 241.939 217.219 243.844 221.098 244.615C224.978 245.387 228.999 244.991 232.654 243.477C236.308 241.964 239.432 239.4 241.629 236.111C243.827 232.822 245 228.955 245 225C245 219.695 242.893 214.608 239.142 210.858C235.391 207.107 230.304 205 225 205ZM225 235C223.022 235 221.089 234.413 219.444 233.314C217.8 232.216 216.518 230.654 215.761 228.827C215.004 226.999 214.806 224.989 215.192 223.049C215.578 221.109 216.53 219.327 217.929 217.929C219.327 216.53 221.109 215.578 223.049 215.192C224.989 214.806 227 215.004 228.827 215.761C230.654 216.518 232.216 217.8 233.315 219.444C234.414 221.089 235 223.022 235 225C235 227.652 233.946 230.195 232.071 232.071C230.196 233.946 227.652 235 225 235Z" fill="black"/>
<path d="M294.027 211L285.067 207.415C283.8 203.102 282.068 198.939 279.902 195L283.707 186.12C284.379 184.588 284.613 182.898 284.38 181.241C284.148 179.584 283.46 178.024 282.392 176.735C281.022 175.1 279.557 173.51 278.032 171.99C276.507 170.47 274.922 168.99 273.287 167.63C272.001 166.562 270.442 165.873 268.786 165.64C267.13 165.408 265.443 165.642 263.912 166.315L255.002 170.1C251.058 167.933 246.89 166.201 242.572 164.935L239.002 156C238.392 154.442 237.36 153.084 236.022 152.078C234.684 151.073 233.093 150.459 231.427 150.305C227.147 149.92 222.842 149.92 218.562 150.305C216.898 150.461 215.31 151.076 213.975 152.082C212.641 153.087 211.611 154.444 211.002 156L207.417 164.96C203.105 166.219 198.942 167.942 195.002 170.1L186.122 166.295C184.59 165.62 182.9 165.385 181.242 165.617C179.584 165.85 178.024 166.54 176.737 167.61C175.102 168.98 173.512 170.445 171.992 171.97C170.472 173.495 168.992 175.08 167.632 176.715C167.004 177.493 166.514 178.372 166.182 179.315C159.188 176.46 151.706 174.994 144.152 175H142.757C139.493 170.839 135.047 167.762 130.002 166.175V160.81C137.048 156.074 142.921 149.794 147.175 142.447C151.428 135.099 153.949 126.879 154.547 118.41C156.971 117.622 159.21 116.35 161.128 114.67C163.045 112.991 164.601 110.939 165.702 108.64C169.311 100.586 170.791 91.7402 170.002 82.95V71.345C170.158 52.6081 162.876 34.5743 149.753 21.1994C136.63 7.82453 118.738 0.200602 100.002 0C81.2655 0.200602 63.3736 7.82453 50.2508 21.1994C37.128 34.5743 29.846 52.6081 30.002 71.345V82.95C29.2127 91.7514 30.6985 100.608 34.317 108.67C35.4171 110.964 36.9718 113.011 38.8867 114.686C40.8017 116.361 43.0369 117.63 45.457 118.415C46.0553 126.883 48.577 135.102 52.8303 142.449C57.0836 149.795 62.9564 156.075 70.002 160.81V166.175C64.9572 167.762 60.5107 170.839 57.247 175H55.852C25.057 175 0.00195312 198.8 0.00195312 228.05V290C0.00195313 292.652 1.05552 295.196 2.93089 297.071C4.80625 298.946 7.34979 300 10.002 300H190.002C192.654 300 195.198 298.946 197.073 297.071C198.948 295.196 200.002 292.652 200.002 290V282.315C202.412 283.386 204.887 284.304 207.412 285.065L210.997 294.025C211.607 295.583 212.639 296.941 213.977 297.947C215.314 298.952 216.905 299.566 218.572 299.72C220.697 299.91 222.847 300 225.002 300C227.157 300 229.307 299.91 231.437 299.72C233.102 299.565 234.691 298.95 236.026 297.944C237.362 296.939 238.392 295.582 239.002 294.025L242.587 285.065C246.9 283.798 251.063 282.066 255.002 279.9L263.882 283.705C265.414 284.377 267.104 284.611 268.761 284.378C270.418 284.146 271.978 283.458 273.267 282.39C274.902 281.02 276.492 279.555 278.012 278.03C279.532 276.505 281.012 274.92 282.372 273.285C283.44 271.999 284.129 270.44 284.362 268.784C284.594 267.128 284.36 265.441 283.687 263.91L279.902 255C282.069 251.056 283.801 246.888 285.067 242.57L294.027 238.985C295.585 238.375 296.943 237.343 297.949 236.005C298.954 234.667 299.568 233.077 299.722 231.41C299.912 229.285 300.002 227.135 300.002 224.98C300.002 222.825 299.912 220.675 299.722 218.545C299.563 216.884 298.947 215.299 297.941 213.967C296.936 212.635 295.581 211.608 294.027 211ZM100.002 269.6C96.2397 267.878 92.8092 265.509 89.867 262.6L94.502 220H105.502L110.122 262.62C107.183 265.52 103.757 267.883 100.002 269.6ZM100.002 191.77C104.316 192.325 108.473 193.743 112.227 195.94L106.617 210H93.387L87.777 196C91.5323 193.796 95.6874 192.358 100.002 191.77ZM79.852 206.21C80.0079 205.631 80.1965 205.062 80.417 204.505L84.917 215.7L81.077 251.125C73.637 236.835 68.8912 221.298 67.077 205.29C68.7677 206.817 70.6011 208.178 72.552 209.355C73.2227 209.734 73.972 209.952 74.7412 209.994C75.5104 210.035 76.2787 209.898 76.9863 209.594C77.6939 209.29 78.3216 208.826 78.8205 208.239C79.3193 207.652 79.6757 206.957 79.862 206.21H79.852ZM118.952 251.15L115.107 215.7L119.607 204.505C119.827 205.062 120.015 205.632 120.172 206.21C120.358 206.957 120.715 207.652 121.213 208.239C121.712 208.826 122.34 209.29 123.048 209.594C123.755 209.898 124.524 210.035 125.293 209.994C126.062 209.952 126.811 209.734 127.482 209.355C129.441 208.175 131.283 206.811 132.982 205.28C131.167 221.303 126.411 236.853 118.952 251.15ZM134.952 181.26C134.462 187.335 131.668 192.993 127.142 197.075C124.4 192.507 120.427 188.803 115.677 186.39C120.372 183.864 124.406 180.267 127.452 175.89C130.452 176.861 133.077 178.737 134.967 181.26H134.952ZM100.002 10C115.79 10.1944 130.88 16.5358 142.067 27.6774C153.255 38.8191 159.658 53.8831 159.917 69.67C157.982 69.1717 155.954 69.1579 154.012 69.63C149.747 52.295 132.712 43.415 122.122 40.765C120.39 40.2929 118.577 40.1954 116.805 40.479C115.032 40.7627 113.34 41.421 111.842 42.41C97.727 51.99 70.762 56.51 57.057 57.105C53.8707 57.2784 50.8652 58.6398 48.6335 60.9206C46.4018 63.2013 45.1061 66.2357 45.002 69.425C43.3636 69.1581 41.6882 69.2262 40.077 69.625C40.3476 53.8442 46.7574 38.7901 57.9457 27.6578C69.1339 16.5256 84.22 10.1915 100.002 10ZM55.392 117.15C55.292 115.292 54.6185 113.511 53.4643 112.051C52.3102 110.591 50.7319 109.526 48.947 109C47.7131 108.673 46.5668 108.077 45.5901 107.255C44.6133 106.433 43.8303 105.405 43.297 104.245C40.3787 97.5501 39.2435 90.2138 40.002 82.95C39.9938 82.3487 40.1249 81.7536 40.3852 81.2114C40.6454 80.6693 41.0276 80.1947 41.502 79.825C41.9425 79.4756 42.4848 79.279 43.047 79.265C43.2582 79.2647 43.4685 79.2933 43.672 79.35C44.305 79.64 44.8076 80.155 45.082 80.795C45.302 82.0165 45.9684 83.1126 46.9518 83.87C47.9351 84.6274 49.165 84.9919 50.4022 84.8928C51.6394 84.7936 52.7956 84.2378 53.6457 83.3335C54.4959 82.4292 54.9793 81.241 55.002 80V69.95C54.9782 69.2456 55.2234 68.5586 55.6877 68.0284C56.152 67.4981 56.8006 67.1644 57.502 67.095C72.862 66.425 101.502 61.505 117.392 50.715C117.727 50.5226 118.097 50.4 118.48 50.3545C118.863 50.3089 119.252 50.3414 119.622 50.45C120.677 50.71 145.002 57.035 145.002 78V80C145.004 81.2556 145.479 82.4644 146.331 83.3862C147.183 84.308 148.352 84.8754 149.603 84.9755C150.855 85.0757 152.098 84.7013 153.086 83.9267C154.075 83.1522 154.735 82.0342 154.937 80.795C155.207 80.157 155.707 79.6434 156.337 79.355C156.711 79.2528 157.105 79.2421 157.484 79.3239C157.864 79.4057 158.218 79.5776 158.517 79.825C158.991 80.1947 159.374 80.6693 159.634 81.2114C159.894 81.7536 160.025 82.3487 160.017 82.95C160.779 90.2076 159.649 97.5388 156.737 104.23C156.193 105.413 155.392 106.46 154.392 107.294C153.392 108.128 152.219 108.728 150.957 109.05C149.199 109.589 147.649 110.654 146.517 112.103C145.384 113.552 144.725 115.314 144.627 117.15C144.034 128.628 139.089 139.449 130.798 147.41C122.508 155.371 111.495 159.873 100.002 160C88.5116 159.869 77.5027 155.365 69.2154 147.405C60.9281 139.445 55.985 128.626 55.392 117.15ZM100.002 170C106.855 170.001 113.645 168.686 120.002 166.125V168.94C118.872 171.16 114.137 178.485 100.002 181.61C85.812 178.475 81.092 171.11 80.002 168.96V166.125C86.3589 168.686 93.1486 170.001 100.002 170ZM72.537 175.87C75.5824 180.247 79.6165 183.844 84.312 186.37C79.5633 188.783 75.59 192.484 72.847 197.05C68.3195 192.971 65.5249 187.314 65.037 181.24C66.9243 178.72 69.5436 176.845 72.537 175.87ZM10.002 228.05C10.3936 216.401 15.3401 205.37 23.7783 197.33C32.2164 189.289 43.4725 184.88 55.127 185.05C55.842 202.885 60.822 262.05 95.002 278.29V290H10.002V228.05ZM105.002 290V278.275C139.172 262.03 144.157 202.905 144.877 185.05C153.287 185.154 161.519 187.483 168.737 191.8L170.102 195C167.935 198.944 166.203 203.112 164.937 207.43L156.002 211C154.444 211.61 153.086 212.642 152.08 213.98C151.074 215.318 150.461 216.908 150.307 218.575C150.092 220.695 150.002 222.845 150.002 225C150.002 227.155 150.092 229.305 150.282 231.435C150.439 233.103 151.058 234.693 152.068 236.029C153.078 237.365 154.44 238.394 156.002 239L164.962 242.585C166.221 246.897 167.944 251.06 170.102 255L166.297 263.88C165.624 265.412 165.391 267.102 165.624 268.759C165.856 270.416 166.544 271.976 167.612 273.265C168.982 274.9 170.447 276.49 171.972 278.01C173.497 279.53 175.082 281.01 176.717 282.37C178.003 283.438 179.562 284.127 181.218 284.36C182.874 284.592 184.561 284.358 186.092 283.685L190.002 282.035V290H105.002ZM289.817 229.915L279.037 234.23C278.3 234.524 277.644 234.988 277.123 235.586C276.601 236.183 276.229 236.896 276.037 237.665C274.775 242.754 272.752 247.624 270.037 252.11C269.627 252.789 269.385 253.556 269.33 254.347C269.276 255.138 269.41 255.931 269.722 256.66L274.302 267.355C273.242 268.595 272.122 269.8 270.957 270.96C269.792 272.12 268.592 273.245 267.352 274.305L256.657 269.725C255.929 269.41 255.135 269.274 254.344 269.329C253.552 269.384 252.785 269.628 252.107 270.04C247.621 272.755 242.751 274.778 237.662 276.04C236.893 276.232 236.18 276.604 235.582 277.126C234.985 277.647 234.521 278.303 234.227 279.04L229.912 289.82C226.64 290.075 223.354 290.075 220.082 289.82L215.767 279.04C215.473 278.303 215.009 277.647 214.411 277.126C213.814 276.604 213.101 276.232 212.332 276.04C207.243 274.778 202.373 272.755 197.887 270.04C197.209 269.628 196.442 269.385 195.65 269.33C194.859 269.275 194.065 269.41 193.337 269.725L182.642 274.305C181.402 273.245 180.197 272.125 179.037 270.96C177.877 269.795 176.752 268.595 175.692 267.355L180.272 256.66C180.584 255.931 180.718 255.138 180.663 254.347C180.609 253.556 180.367 252.789 179.957 252.11C177.242 247.624 175.219 242.754 173.957 237.665C173.765 236.896 173.393 236.183 172.871 235.586C172.35 234.988 171.694 234.524 170.957 234.23L160.177 229.915C160.062 228.29 160.002 226.645 160.002 225C160.002 223.355 160.062 221.71 160.187 220.085L170.967 215.77C171.704 215.476 172.36 215.012 172.881 214.414C173.403 213.817 173.775 213.104 173.967 212.335C175.229 207.246 177.252 202.376 179.967 197.89C180.377 197.211 180.619 196.444 180.673 195.653C180.728 194.862 180.594 194.069 180.282 193.34L175.702 182.645C176.762 181.405 177.882 180.2 179.047 179.04C180.212 177.88 181.412 176.755 182.652 175.695L193.347 180.275C194.076 180.587 194.869 180.721 195.66 180.667C196.451 180.612 197.218 180.37 197.897 179.96C202.383 177.245 207.253 175.222 212.342 173.96C213.111 173.768 213.824 173.396 214.421 172.874C215.019 172.353 215.483 171.697 215.777 170.96L220.092 160.18C223.364 159.925 226.65 159.925 229.922 160.18L234.237 170.96C234.531 171.697 234.995 172.353 235.592 172.874C236.19 173.396 236.903 173.768 237.672 173.96C242.761 175.222 247.631 177.245 252.117 179.96C252.796 180.37 253.563 180.612 254.354 180.667C255.145 180.721 255.938 180.587 256.667 180.275L267.362 175.695C268.602 176.755 269.807 177.875 270.967 179.04C272.127 180.205 273.252 181.405 274.312 182.645L269.732 193.34C269.42 194.069 269.286 194.862 269.34 195.653C269.395 196.444 269.637 197.211 270.047 197.89C272.762 202.376 274.785 207.246 276.047 212.335C276.239 213.104 276.611 213.817 277.132 214.414C277.654 215.012 278.31 215.476 279.047 215.77L289.827 220.085C289.952 221.71 290.012 223.355 290.012 225C290.012 226.645 289.942 228.29 289.817 229.915Z" fill="black"/>
<path d="M280.002 30H270.002C267.35 30 264.806 31.0536 262.931 32.9289C261.056 34.8043 260.002 37.3478 260.002 40V60H220.002V40C220.002 37.3478 218.948 34.8043 217.073 32.9289C215.198 31.0536 212.654 30 210.002 30H200.002C194.698 30 189.611 32.1071 185.86 35.8579C182.109 39.6086 180.002 44.6957 180.002 50V119.725C180.002 120.17 180.002 120.62 180.027 121.07C180.414 126.292 182.789 131.166 186.664 134.688C190.539 138.21 195.617 140.112 200.852 140H280.002C285.306 140 290.393 137.893 294.144 134.142C297.895 130.391 300.002 125.304 300.002 120V50C300.002 44.6957 297.895 39.6086 294.144 35.8579C290.393 32.1071 285.306 30 280.002 30ZM190.002 50C190.002 47.3478 191.056 44.8043 192.931 42.9289C194.806 41.0536 197.35 40 200.002 40H210.002V100H200.002C196.49 100.003 193.041 100.931 190.002 102.69V50ZM280.002 130H200.852C198.185 130.08 195.587 129.15 193.575 127.397C191.564 125.645 190.288 123.198 190.002 120.545C190.002 120.36 190.002 120.18 190.002 120V119.845C190.043 117.22 191.114 114.716 192.985 112.874C194.856 111.032 197.376 110 200.002 110H210.002C212.654 110 215.198 108.946 217.073 107.071C218.948 105.196 220.002 102.652 220.002 100V70H260.002V100C260.002 102.652 261.056 105.196 262.931 107.071C264.806 108.946 267.35 110 270.002 110H280.002C282.654 110 285.198 111.054 287.073 112.929C288.948 114.804 290.002 117.348 290.002 120C290.002 122.652 288.948 125.196 287.073 127.071C285.198 128.946 282.654 130 280.002 130ZM290.002 102.685C286.965 100.921 283.514 99.9946 280.002 100H270.002V40H280.002C282.654 40 285.198 41.0536 287.073 42.9289C288.948 44.8043 290.002 47.3478 290.002 50V102.685Z" fill="black"/>
</g>
<defs>
<clipPath id="clip0_6675_650">
<rect width="300" height="300" fill="white"/>
</clipPath>
</defs>
</svg>
