<svg width="300" height="300" viewBox="0 0 300 300" fill="none" xmlns="http://www.w3.org/2000/svg">
<path d="M95.9206 121.25C70.6493 127.767 54.166 138.931 54.166 151.677C54.166 171.869 96.3806 188.333 148.562 188.333C155.654 188.333 160.637 187.96 167.249 187.404" stroke="black" stroke-width="9.17" stroke-linecap="round" stroke-linejoin="round"/>
<path d="M129.271 187.377C125.313 181.665 121.547 176.519 117.962 170.127C91.5987 123.169 84.5358 76.498 102.342 65.9275C113.362 59.248 131.542 68.3521 150.009 87.5284" stroke="black" stroke-width="9.17" stroke-linecap="round" stroke-linejoin="round"/>
<path d="M96.6106 182.459C89.8831 208.219 91.2439 227.654 101.977 234.161C119.064 244.511 153.603 215.397 179.056 168.956C182.506 162.535 185.601 156.22 188.333 150" stroke="black" stroke-width="9.17" stroke-linecap="round" stroke-linejoin="round"/>
<path d="M150 212.484C168.477 231.651 186.58 240.755 197.706 234.076C215.435 223.515 208.449 176.844 182.056 129.876C178.376 123.388 174.61 118.338 170.748 112.626" stroke="black" stroke-width="9.17" stroke-linecap="round" stroke-linejoin="round"/>
<path d="M204.24 178.75C229.271 172.166 245.831 161.021 245.831 148.313C245.831 128.092 203.588 111.667 151.483 111.667C144.325 111.667 139.351 111.944 132.748 112.5" stroke="black" stroke-width="9.17" stroke-linecap="round" stroke-linejoin="round"/>
<path d="M111.666 150.003C114.397 143.678 117.483 137.468 120.943 131.047C146.31 84.6251 180.867 55.4342 198.05 65.8705C208.688 72.3776 210.144 91.803 203.417 117.553M152.491 150.146H152.395C152.299 151.392 151.245 152.446 149.904 152.446C149.262 152.415 148.656 152.139 148.211 151.676C147.766 151.213 147.514 150.597 147.508 149.955C147.508 148.613 148.562 147.559 149.808 147.559H149.712C150.958 147.463 152.108 148.613 152.108 149.859" stroke="black" stroke-width="9.17" stroke-linecap="round" stroke-linejoin="round"/>
</svg>
