<svg width="300" height="300" viewBox="0 0 300 300" fill="none" xmlns="http://www.w3.org/2000/svg">
<mask id="path-1-inside-1_13653_241" fill="white">
<path d="M210.13 61.7893C197.189 61.231 184.527 66.8008 175.404 76.7732C160.839 71.3683 146.439 77.9151 137.215 89.5876C129.311 78.8159 116.61 72.4214 103.212 74.9208C103.204 74.9208 103.196 74.9208 103.187 74.9208C94.0351 76.6638 85.9444 81.9569 80.6815 89.6445C75.4186 97.332 73.411 106.79 75.0969 115.952C75.113 116.012 75.1299 116.071 75.1477 116.13C69.4637 117.83 63.3483 118.642 59.1361 122.981C46.9053 135.529 47.5524 154.421 57.7912 168.022C47.8442 181.318 47.1591 199.487 54.6447 213.24C59.0853 221.398 67.6113 228.896 78.1419 233.756C87.1501 237.93 97.8964 239.034 108.427 236.268C109.379 237.435 110.279 238.552 112.233 240.632C115.124 243.71 118.593 246.189 122.442 247.926C126.291 249.663 130.444 250.625 134.665 250.757V251.645C143.546 251.645 151.704 248.765 158.428 243.969C167.69 250.77 179.414 253.586 190.54 249.602C205.765 244.121 212.553 228.846 211.335 213.418C231.965 214.737 250.096 199.271 251.707 178.603C252.925 162.782 242.661 150.856 229.25 144.131C235.34 140.693 240.821 136.316 244.729 130.353C251.168 120.517 253.444 108.53 251.059 97.0184C248.673 85.5072 241.821 75.4116 232.003 68.945C225.471 64.6627 217.93 62.1932 210.13 61.7893ZM207.25 74.2992C213.34 74.2357 219.531 75.9485 225.038 79.5518C228.526 81.8188 231.53 84.7542 233.878 88.1885C236.225 91.6228 237.869 95.4881 238.715 99.5612C239.561 103.634 239.592 107.835 238.805 111.92C238.019 116.005 236.432 119.893 234.135 123.362C229.364 130.619 221.828 135.605 213.264 137.14C211.79 137.378 210.446 138.128 209.471 139.258C208.495 140.388 207.949 141.827 207.93 143.32C207.91 144.813 208.417 146.265 209.363 147.42C210.309 148.576 211.631 149.361 213.099 149.638C213.92 150.085 214.83 150.344 215.763 150.399C219.084 150.646 222.322 151.547 225.293 153.05C228.264 154.554 230.908 156.63 233.073 159.159C235.238 161.689 236.881 164.622 237.908 167.789C238.935 170.956 239.326 174.295 239.057 177.613C238.811 180.932 237.91 184.168 236.407 187.137C234.904 190.105 232.828 192.747 230.3 194.91C227.771 197.073 224.84 198.714 221.674 199.739C218.509 200.764 215.172 201.153 211.855 200.882C207.453 200.54 206.552 200.438 206.552 200.438C205.479 200.309 204.392 200.455 203.391 200.864C202.391 201.273 201.512 201.93 200.837 202.774C200.163 203.618 199.715 204.62 199.536 205.686C199.357 206.751 199.453 207.845 199.815 208.863C200.826 211.641 201.276 214.592 201.141 217.545C201.005 220.498 200.286 223.396 199.025 226.07C197.765 228.743 195.987 231.141 193.794 233.125C191.602 235.108 189.039 236.638 186.252 237.625C183.103 238.743 179.743 239.139 176.42 238.784C173.097 238.428 169.897 237.329 167.056 235.57C172.698 228.428 175.784 219.601 175.823 210.499V150.348H188.384V137.661H175.823V134.489C175.799 130.741 176.521 127.026 177.945 123.56C179.369 120.093 181.467 116.944 184.118 114.295C186.769 111.646 189.92 109.551 193.388 108.13C196.856 106.709 200.572 105.991 204.319 106.018V93.3304C193.405 93.3438 182.941 97.6836 175.222 105.399C167.502 113.114 163.156 123.575 163.135 134.489V137.661H150.372V150.348H163.135V210.512C163.135 225.94 151.222 238.171 135.984 238.856C130.453 238.414 125.284 235.932 121.482 231.891C121.474 231.891 121.466 231.891 121.457 231.891C119.82 230.189 118.275 228.401 116.826 226.536C116.818 226.536 116.809 226.536 116.801 226.536H116.775C116.009 225.165 114.76 224.126 113.272 223.622C111.784 223.118 110.161 223.185 108.719 223.809C100.726 227.285 91.6668 226.092 83.4707 222.299C75.2746 218.518 68.3472 211.946 65.797 207.264C60.0622 196.708 60.4429 180.976 68.7024 172.716C69.2937 172.123 69.7617 171.419 70.0794 170.644C70.3971 169.869 70.5583 169.039 70.5536 168.201C70.5489 167.364 70.3784 166.536 70.0519 165.765C69.7255 164.993 69.2496 164.294 68.6517 163.708C66.5238 161.654 64.8239 159.199 63.6502 156.484C62.4764 153.769 61.852 150.849 61.8131 147.891C61.7742 144.934 62.3215 141.998 63.4234 139.254C64.5252 136.509 66.1599 134.01 68.233 131.9C72.4199 127.587 78.1546 125.138 84.1558 125.087C85.3159 125.077 86.4511 124.749 87.4378 124.139C88.4246 123.529 89.2251 122.66 89.7523 121.626C90.2795 120.593 90.5131 119.435 90.4279 118.278C90.3427 117.121 89.9418 116.009 89.2689 115.064L87.7337 112.92C85.9574 100.968 93.5319 89.7018 105.522 87.4688C110.199 86.5939 115.032 87.2271 119.326 89.2771C123.62 91.3271 127.152 94.6879 129.412 98.8748L130.478 101.476C130.962 102.646 131.786 103.645 132.843 104.343C133.9 105.041 135.141 105.407 136.408 105.393C137.674 105.38 138.908 104.987 139.949 104.266C140.991 103.545 141.793 102.529 142.252 101.349C146.692 90.057 159.063 84.7917 170.418 88.6868L171.014 89.3592C171.654 90.1051 172.457 90.6923 173.362 91.0747C174.267 91.457 175.248 91.624 176.229 91.5625C177.209 91.501 178.162 91.2127 179.011 90.7202C179.861 90.2278 180.585 89.5447 181.126 88.7248C185.948 81.3915 193.268 76.6971 201.198 75.0604V74.9843C203.177 74.5656 205.207 74.3372 207.25 74.3118V74.2992ZM125.885 112.615C110.914 112.996 99.4823 126.407 99.8122 141.797C99.9644 149.13 102.223 155.854 106.575 160.904C110.939 165.966 117.372 169.1 124.591 169.658H124.362C131.023 170.42 131.417 170.8 134.88 175.875C139.702 182.955 138.243 193.295 131.924 198.396C125.606 203.509 117.46 202.291 112.627 195.198L102.134 202.341C110.736 214.927 128.143 217.769 139.905 208.266C151.666 198.751 153.962 181.306 145.36 168.72C140.869 162.135 134.474 158.037 125.809 157.047H125.555C121.241 156.717 118.336 155.144 116.192 152.657C114.035 150.158 112.601 146.504 112.5 141.581C112.297 132.484 118.691 125.544 126.228 125.341H126.253C129.249 125.259 132.175 126.254 134.5 128.145L142.29 118.122C137.641 114.421 131.826 112.472 125.885 112.615ZM161.879 242.142L161.753 242.231H161.613C161.689 242.129 161.803 242.193 161.879 242.142Z"/>
</mask>
<path d="M210.13 61.7893C197.189 61.231 184.527 66.8008 175.404 76.7732C160.839 71.3683 146.439 77.9151 137.215 89.5876C129.311 78.8159 116.61 72.4214 103.212 74.9208C103.204 74.9208 103.196 74.9208 103.187 74.9208C94.0351 76.6638 85.9444 81.9569 80.6815 89.6445C75.4186 97.332 73.411 106.79 75.0969 115.952C75.113 116.012 75.1299 116.071 75.1477 116.13C69.4637 117.83 63.3483 118.642 59.1361 122.981C46.9053 135.529 47.5524 154.421 57.7912 168.022C47.8442 181.318 47.1591 199.487 54.6447 213.24C59.0853 221.398 67.6113 228.896 78.1419 233.756C87.1501 237.93 97.8964 239.034 108.427 236.268C109.379 237.435 110.279 238.552 112.233 240.632C115.124 243.71 118.593 246.189 122.442 247.926C126.291 249.663 130.444 250.625 134.665 250.757V251.645C143.546 251.645 151.704 248.765 158.428 243.969C167.69 250.77 179.414 253.586 190.54 249.602C205.765 244.121 212.553 228.846 211.335 213.418C231.965 214.737 250.096 199.271 251.707 178.603C252.925 162.782 242.661 150.856 229.25 144.131C235.34 140.693 240.821 136.316 244.729 130.353C251.168 120.517 253.444 108.53 251.059 97.0184C248.673 85.5072 241.821 75.4116 232.003 68.945C225.471 64.6627 217.93 62.1932 210.13 61.7893ZM207.25 74.2992C213.34 74.2357 219.531 75.9485 225.038 79.5518C228.526 81.8188 231.53 84.7542 233.878 88.1885C236.225 91.6228 237.869 95.4881 238.715 99.5612C239.561 103.634 239.592 107.835 238.805 111.92C238.019 116.005 236.432 119.893 234.135 123.362C229.364 130.619 221.828 135.605 213.264 137.14C211.79 137.378 210.446 138.128 209.471 139.258C208.495 140.388 207.949 141.827 207.93 143.32C207.91 144.813 208.417 146.265 209.363 147.42C210.309 148.576 211.631 149.361 213.099 149.638C213.92 150.085 214.83 150.344 215.763 150.399C219.084 150.646 222.322 151.547 225.293 153.05C228.264 154.554 230.908 156.63 233.073 159.159C235.238 161.689 236.881 164.622 237.908 167.789C238.935 170.956 239.326 174.295 239.057 177.613C238.811 180.932 237.91 184.168 236.407 187.137C234.904 190.105 232.828 192.747 230.3 194.91C227.771 197.073 224.84 198.714 221.674 199.739C218.509 200.764 215.172 201.153 211.855 200.882C207.453 200.54 206.552 200.438 206.552 200.438C205.479 200.309 204.392 200.455 203.391 200.864C202.391 201.273 201.512 201.93 200.837 202.774C200.163 203.618 199.715 204.62 199.536 205.686C199.357 206.751 199.453 207.845 199.815 208.863C200.826 211.641 201.276 214.592 201.141 217.545C201.005 220.498 200.286 223.396 199.025 226.07C197.765 228.743 195.987 231.141 193.794 233.125C191.602 235.108 189.039 236.638 186.252 237.625C183.103 238.743 179.743 239.139 176.42 238.784C173.097 238.428 169.897 237.329 167.056 235.57C172.698 228.428 175.784 219.601 175.823 210.499V150.348H188.384V137.661H175.823V134.489C175.799 130.741 176.521 127.026 177.945 123.56C179.369 120.093 181.467 116.944 184.118 114.295C186.769 111.646 189.92 109.551 193.388 108.13C196.856 106.709 200.572 105.991 204.319 106.018V93.3304C193.405 93.3438 182.941 97.6836 175.222 105.399C167.502 113.114 163.156 123.575 163.135 134.489V137.661H150.372V150.348H163.135V210.512C163.135 225.94 151.222 238.171 135.984 238.856C130.453 238.414 125.284 235.932 121.482 231.891C121.474 231.891 121.466 231.891 121.457 231.891C119.82 230.189 118.275 228.401 116.826 226.536C116.818 226.536 116.809 226.536 116.801 226.536H116.775C116.009 225.165 114.76 224.126 113.272 223.622C111.784 223.118 110.161 223.185 108.719 223.809C100.726 227.285 91.6668 226.092 83.4707 222.299C75.2746 218.518 68.3472 211.946 65.797 207.264C60.0622 196.708 60.4429 180.976 68.7024 172.716C69.2937 172.123 69.7617 171.419 70.0794 170.644C70.3971 169.869 70.5583 169.039 70.5536 168.201C70.5489 167.364 70.3784 166.536 70.0519 165.765C69.7255 164.993 69.2496 164.294 68.6517 163.708C66.5238 161.654 64.8239 159.199 63.6502 156.484C62.4764 153.769 61.852 150.849 61.8131 147.891C61.7742 144.934 62.3215 141.998 63.4234 139.254C64.5252 136.509 66.1599 134.01 68.233 131.9C72.4199 127.587 78.1546 125.138 84.1558 125.087C85.3159 125.077 86.4511 124.749 87.4378 124.139C88.4246 123.529 89.2251 122.66 89.7523 121.626C90.2795 120.593 90.5131 119.435 90.4279 118.278C90.3427 117.121 89.9418 116.009 89.2689 115.064L87.7337 112.92C85.9574 100.968 93.5319 89.7018 105.522 87.4688C110.199 86.5939 115.032 87.2271 119.326 89.2771C123.62 91.3271 127.152 94.6879 129.412 98.8748L130.478 101.476C130.962 102.646 131.786 103.645 132.843 104.343C133.9 105.041 135.141 105.407 136.408 105.393C137.674 105.38 138.908 104.987 139.949 104.266C140.991 103.545 141.793 102.529 142.252 101.349C146.692 90.057 159.063 84.7917 170.418 88.6868L171.014 89.3592C171.654 90.1051 172.457 90.6923 173.362 91.0747C174.267 91.457 175.248 91.624 176.229 91.5625C177.209 91.501 178.162 91.2127 179.011 90.7202C179.861 90.2278 180.585 89.5447 181.126 88.7248C185.948 81.3915 193.268 76.6971 201.198 75.0604V74.9843C203.177 74.5656 205.207 74.3372 207.25 74.3118V74.2992ZM125.885 112.615C110.914 112.996 99.4823 126.407 99.8122 141.797C99.9644 149.13 102.223 155.854 106.575 160.904C110.939 165.966 117.372 169.1 124.591 169.658H124.362C131.023 170.42 131.417 170.8 134.88 175.875C139.702 182.955 138.243 193.295 131.924 198.396C125.606 203.509 117.46 202.291 112.627 195.198L102.134 202.341C110.736 214.927 128.143 217.769 139.905 208.266C151.666 198.751 153.962 181.306 145.36 168.72C140.869 162.135 134.474 158.037 125.809 157.047H125.555C121.241 156.717 118.336 155.144 116.192 152.657C114.035 150.158 112.601 146.504 112.5 141.581C112.297 132.484 118.691 125.544 126.228 125.341H126.253C129.249 125.259 132.175 126.254 134.5 128.145L142.29 118.122C137.641 114.421 131.826 112.472 125.885 112.615ZM161.879 242.142L161.753 242.231H161.613C161.689 242.129 161.803 242.193 161.879 242.142Z" fill="black" stroke="#323232" stroke-width="2" mask="url(#path-1-inside-1_13653_241)"/>
</svg>
