<svg width="300" height="300" viewBox="0 0 300 300" fill="none" xmlns="http://www.w3.org/2000/svg">
<path d="M270.601 89.9556L150.702 209.876H26.9556V89.9556H270.601Z" stroke="black" stroke-width="3.91128"/>
<path d="M170.06 112.226H145.336L145.42 170.372L123.892 112.204H102.546L84.1694 160.782C82.2157 148.421 69.4361 144.156 59.3807 140.961C52.7408 138.828 45.6931 135.691 45.7645 132.224C45.8198 129.378 49.535 126.739 56.918 127.133C61.8712 127.4 66.2464 127.799 74.9505 132.003L83.5089 117.089C75.5724 113.049 64.5983 110.498 55.5999 110.49H55.5447C45.0522 110.49 36.3153 113.888 30.8997 119.488C27.1243 123.396 25.088 128.365 25.0059 133.861C24.868 141.423 27.6391 146.784 33.4621 151.068C38.3825 154.673 44.6757 157.012 50.2204 158.729C57.0588 160.848 62.6451 162.692 62.5762 166.616C62.5214 168.047 61.9817 169.384 60.953 170.463C59.2467 172.224 56.6325 172.884 53.0136 172.956C46.0319 173.104 40.8593 172.006 32.6143 167.133L25 182.241C33.2362 186.925 41.9789 189.274 51.913 189.274L54.1474 189.258C62.7937 189.101 69.8106 187.029 75.3856 182.543C75.7054 182.287 75.9914 182.029 76.2886 181.767L75.3529 186.589L96.2117 186.523L99.9543 176.94C103.889 178.284 108.364 179.027 113.113 179.027C117.742 179.027 122.095 178.322 125.956 177.056L128.565 186.523L165.99 186.558L166.08 164.714H174.044C193.293 164.714 204.672 154.918 204.672 138.489C204.666 120.193 193.604 112.223 170.06 112.223V112.226ZM113.113 161.929C110.238 161.929 107.541 161.428 105.221 160.548L113.025 135.905H113.177L120.854 160.617C118.543 161.443 115.909 161.929 113.11 161.929H113.113ZM171.507 147.771H166.075V127.912H171.51C178.747 127.912 184.526 130.322 184.526 137.714C184.52 145.364 178.747 147.772 171.51 147.772" fill="black"/>
</svg>
