<svg width="300" height="301" viewBox="0 0 300 301" fill="none" xmlns="http://www.w3.org/2000/svg">
<path d="M209.998 197.813C198.748 194.531 187.03 192.188 174.842 191.25C173.436 191.25 171.561 191.719 170.623 193.125C169.686 194.531 169.217 195.937 169.686 197.344C174.373 213.281 172.498 230.156 165.467 245.625L164.061 224.531L167.342 216.563C167.342 216.094 167.811 215.156 167.811 214.688V202.969C167.811 200.156 165.936 198.281 163.123 198.281H138.28C135.467 198.281 133.592 200.156 133.592 202.969V214.688C133.592 215.156 133.592 216.094 134.061 216.563L137.342 224.531L135.936 245.625C128.436 230.156 126.561 213.281 131.717 197.813C132.186 196.406 131.717 194.531 130.78 193.594C129.842 192.188 128.436 191.719 126.561 191.719C113.436 193.125 101.717 195 90.9358 198.281C80.1546 201.563 72.6546 209.531 71.2484 219.375L56.2483 295.313C55.7796 296.719 56.2483 298.125 57.1858 299.063C58.1233 300 59.5296 300.938 60.9358 300.938H241.873C243.28 300.938 244.686 300.469 245.623 299.063C246.561 298.125 247.03 296.719 246.561 295.313L231.561 219.844C228.28 209.063 220.78 200.625 209.998 197.813ZM142.03 207.188H157.498V213.281L155.155 218.437H143.905L141.561 213.281V207.188H142.03ZM156.561 258.75C154.686 261.563 152.342 263.906 149.998 266.719C147.655 264.375 145.311 261.563 143.436 258.75L145.78 227.813H154.686L156.561 258.75ZM65.1546 290.625L79.2171 220.313C80.1546 214.219 85.3108 209.062 92.3421 206.719C100.78 204.375 109.686 202.5 119.53 201.094C114.373 227.344 124.217 255.469 146.248 277.031C148.123 278.906 150.936 278.906 152.811 277.031C175.311 255.469 185.155 227.813 179.998 201.563C189.373 202.969 198.748 204.844 207.186 207.188C214.217 209.063 219.842 214.687 220.78 220.781L234.842 291.094H65.1546V290.625Z" fill="black"/>
<path d="M149.999 190.782C164.999 190.782 175.311 172.032 179.061 163.594C189.843 159.844 191.249 137.813 182.343 130.313C178.124 113.438 164.999 101.719 149.999 101.719C134.999 101.719 122.343 113.438 117.655 130.313C108.749 137.813 110.155 159.375 120.936 163.594C127.03 177.188 137.811 190.782 149.999 190.782ZM124.218 137.813C125.624 137.344 126.561 135.938 126.561 134.532C129.374 120.938 139.218 111.563 149.999 111.563C160.78 111.563 170.624 120.938 173.436 134.532C173.905 135.938 174.843 137.344 175.78 137.813C179.999 140.625 178.124 155.157 175.78 155.157C173.905 155.157 172.03 156.094 171.561 157.969C166.874 169.688 157.968 181.875 149.999 181.875C142.03 181.875 133.124 169.688 128.436 157.969C127.499 156.094 126.093 155.157 124.218 155.157C121.405 154.688 119.53 140.625 124.218 137.813Z" fill="black"/>
<path d="M282.188 131.25C281.25 131.25 280.781 131.25 280.312 131.25L255 69.375C259.219 66.0937 262.031 60.9375 262.031 55.3125C262.031 45.4687 254.062 37.5 244.219 37.5C238.594 37.5 233.437 40.3125 230.156 44.5312L168.281 19.2187C168.281 18.75 168.281 18.2812 168.281 17.3437C168.75 7.96875 160.781 0 150.938 0C141.094 0 133.125 7.96875 133.125 17.8125V19.6875L70.3125 45.4687C67.0313 40.7812 61.875 37.9687 55.7812 37.9687C45.9375 37.9687 37.9688 45.9375 37.9688 55.7812C37.9688 62.3437 41.25 67.5 46.4062 70.7812L21.0938 131.719C20.1562 131.25 18.75 131.25 17.8125 131.25C7.96875 131.25 0 139.219 0 149.062C0 160.781 10.7812 168.75 21.5625 166.406L37.5 204.844C37.9688 206.25 39.375 207.187 40.7812 207.656C42.1875 208.125 44.0625 207.656 45 206.719C56.7188 195.937 70.3125 187.031 85.3125 180.469C87.6563 179.531 88.5938 176.719 87.6563 174.375C84.375 166.406 82.5 157.5 82.5 149.062C82.5 111.562 112.969 81.0937 150.469 81.0937C187.969 81.0937 218.437 111.562 218.437 149.062C218.437 157.969 216.562 166.875 213.281 175.312C212.344 177.656 213.281 180.469 215.625 181.406C230.625 187.969 244.219 197.344 255.937 208.125C256.875 209.062 257.812 209.531 259.219 209.531H260.156C261.563 209.062 262.969 208.125 263.438 206.719L279.844 166.875H282.188C292.031 166.875 300 158.906 300 149.062C300 139.219 292.031 131.25 282.188 131.25ZM236.25 52.5C237.656 49.2187 240.469 47.3437 243.75 47.3437C248.438 47.3437 252.187 51.0937 252.187 55.7812C252.187 60.4687 248.438 64.2187 243.75 64.2187C238.125 64.2187 233.906 58.125 236.25 52.5ZM55.7812 47.3437C59.5312 47.3437 62.3438 49.6875 63.75 52.9687C64.6875 55.3125 64.2187 58.125 62.8125 60.4687C61.4062 62.8125 58.5937 64.2187 55.7812 64.2187C51.0937 64.2187 47.3438 60.4687 47.3438 55.7812C47.8125 51.0937 51.5625 47.3437 55.7812 47.3437ZM22.0312 156.094C16.4062 159.375 9.375 155.625 9.375 149.062C9.375 144.375 13.125 140.625 17.8125 140.625C22.5 140.625 24.8437 143.906 25.7812 146.719C26.7188 149.531 25.7812 153.75 22.0312 156.094ZM44.0625 195.469L30 161.719C32.3438 159.375 34.2187 156.562 34.6875 153.281H73.5938C74.0625 160.312 75.4687 166.875 77.3438 173.437C65.1563 179.531 53.9062 186.562 44.0625 195.469ZM74.0625 143.906H34.6875C33.75 140.625 31.875 138.281 30 135.937L56.25 73.5937C60 73.5937 63.2812 72.6562 66.5625 70.3125L93.75 97.5C81.5625 110.625 75 126.562 74.0625 143.906ZM146.25 71.7187C128.906 72.6562 112.5 79.2187 99.8437 90.9375L72.1875 63.2812C73.5937 60.4687 74.0625 57.6562 73.5938 54.8437L136.875 28.125C139.219 31.4062 142.5 33.75 146.719 34.6875V71.7187H146.25ZM150.938 26.25C146.25 26.25 142.5 22.5 142.5 17.8125C142.5 13.125 146.25 9.375 150.938 9.375C155.625 9.375 159.375 13.125 159.375 17.8125C159.375 22.5 155.625 26.25 150.938 26.25ZM155.625 71.7187V34.6875C159.375 33.75 162.656 31.4062 165 28.125L226.406 53.9062C225.937 57.6562 226.875 61.4062 228.75 64.6875L202.031 91.4062C189.375 79.6875 172.969 72.6562 155.625 71.7187ZM257.344 196.406C247.031 187.5 235.781 180.469 223.594 174.375C225.938 167.812 227.344 160.781 227.812 153.281H265.312C266.25 157.031 268.594 160.312 271.406 162.656L257.344 196.406ZM265.312 143.906H227.812C226.875 126.562 220.312 110.625 208.594 97.5L235.313 70.7812C239.063 72.6562 242.344 73.125 246.094 73.125L271.406 135C268.594 137.344 266.719 140.156 265.312 143.906ZM282.188 157.031C277.5 157.031 273.75 153.281 273.75 148.594C273.75 143.906 277.5 140.625 282.188 140.625C286.875 140.625 290.625 144.375 290.625 149.062C290.625 153.75 286.875 157.031 282.188 157.031Z" fill="black"/>
</svg>
