<svg width="300" height="300" viewBox="0 0 300 300" fill="none" xmlns="http://www.w3.org/2000/svg">
<path d="M45.9635 224.506H116.357V237.495H42.9415C30.5395 237.495 26.8736 231.284 32.7136 221.345L94.9147 118.193V58.9891H82.6411C73.4605 58.9891 73.4605 46 82.6411 46H172.042C181.223 46 181.223 58.9891 172.042 58.9891H159.768V121.512H146.606V58.9891H108.077V121.512L45.9635 224.506ZM109.791 144.869L69.8648 211.779H103.097L152.227 158.633L144.892 144.869H109.791ZM178.512 149.474L128.612 202.803L178.512 254.715L188 245.5L144.892 202.803L188 158.633L178.512 149.474ZM213 158.633L256.5 202.803L213 247.5L221.101 254.715L271 202.803L221.101 149.474L213 158.633Z" fill="black"/>
</svg>
