<svg width="300" height="300" viewBox="0 0 300 300" fill="none" xmlns="http://www.w3.org/2000/svg">
<path fill-rule="evenodd" clip-rule="evenodd" d="M72.9858 141.584C69.7625 141.584 66.9996 142.735 64.6972 144.577V142.044H56.8691V171.745H64.9275V152.866C66.0787 151.254 68.8415 149.182 72.2951 149.182C73.4463 149.182 74.5975 149.412 75.5184 149.642V142.044C74.5975 141.814 73.6765 141.584 72.9858 141.584Z" fill="black"/>
<path fill-rule="evenodd" clip-rule="evenodd" d="M3.68381 162.531C5.75596 164.372 8.97929 165.524 11.7422 165.524C13.8143 165.524 15.6562 164.372 15.6562 162.991C15.6562 158.386 1.15119 159.998 1.15119 150.558C1.15119 144.802 6.67691 141.349 12.4329 141.349C16.3469 141.349 20.4912 142.73 22.5634 144.342L18.8795 150.098C17.2679 149.177 15.426 148.026 13.1236 148.026C10.8212 148.026 9.20953 148.946 9.20953 150.558C9.20953 154.472 23.7145 152.861 23.7145 163.221C23.7145 168.977 18.1888 172.431 11.9724 172.431C7.8281 172.431 3.45357 171.049 0 168.517L3.68381 162.531Z" fill="black"/>
<path fill-rule="evenodd" clip-rule="evenodd" d="M53.4167 156.544C53.4167 148.256 47.6608 141.349 39.3722 141.349C30.6231 141.349 24.8672 148.716 24.8672 156.775C24.8672 166.214 31.5441 172.201 40.2932 172.201C44.8979 172.201 49.5027 170.359 52.4958 166.905L47.891 162.3C46.5096 163.912 43.7467 165.754 40.5234 165.754C36.3791 165.754 32.9255 162.761 32.4651 158.617H52.9563C53.4167 158.156 53.4167 157.465 53.4167 156.544ZM33.1558 153.091C33.6162 150.328 36.3791 147.795 39.6024 147.795C42.8258 147.795 45.1282 150.328 45.5886 153.091H33.1558Z" fill="black"/>
<path fill-rule="evenodd" clip-rule="evenodd" d="M110.514 142.045L96.9301 171.746H91.4044L77.8203 142.045H85.8787L94.1672 160.234L102.226 142.045H110.514Z" fill="black"/>
<path fill-rule="evenodd" clip-rule="evenodd" d="M117.192 128C120.185 128 122.488 130.302 122.488 133.065C122.488 136.058 120.185 138.13 117.192 138.13C114.199 138.13 112.127 135.828 112.127 133.065C112.127 130.072 114.199 128 117.192 128Z" fill="black"/>
<path d="M121.336 142.045H113.277V171.746H121.336V142.045Z" fill="black"/>
<path fill-rule="evenodd" clip-rule="evenodd" d="M154.029 165.524C150.576 170.128 146.201 172.201 140.676 172.201C131.466 172.201 124.789 165.293 124.789 156.775C124.789 148.026 131.696 141.349 140.676 141.349C145.971 141.349 150.346 143.881 153.108 147.335L147.813 152.17C146.201 150.098 143.899 148.716 141.136 148.716C136.531 148.716 133.078 152.4 133.078 156.775C133.078 161.379 136.301 164.833 141.136 164.833C144.359 164.833 146.892 162.991 148.273 160.919L154.029 165.524Z" fill="black"/>
<path fill-rule="evenodd" clip-rule="evenodd" d="M182.81 166.905C179.817 170.359 175.212 172.201 170.608 172.201C161.859 172.201 155.182 166.214 155.182 156.775C155.182 148.486 160.707 141.349 169.687 141.349C177.745 141.349 183.731 148.256 183.731 156.544C183.731 157.465 183.731 158.156 183.501 158.847H162.779C163.24 162.991 166.694 165.984 170.838 165.984C174.061 165.984 176.824 164.142 178.205 162.531L182.81 166.905ZM175.443 153.091C175.212 150.558 172.91 147.795 169.456 147.795C166.233 147.795 163.47 150.328 163.01 153.091H175.443Z" fill="black"/>
<path fill-rule="evenodd" clip-rule="evenodd" d="M186.723 171.741V142.04H194.321V144.573C196.623 142.731 199.386 141.58 202.609 141.58C206.753 141.58 210.437 143.421 212.97 146.415C214.812 148.717 216.193 151.71 216.193 156.775V171.971H208.135V156.085C208.135 153.092 207.444 151.48 206.293 150.559C205.142 149.408 203.76 148.717 201.688 148.717C198.465 148.717 195.702 150.789 194.321 152.401V171.741H186.723Z" fill="black"/>
<path fill-rule="evenodd" clip-rule="evenodd" d="M236.684 141.354C227.014 141.354 219.416 148.952 219.416 158.622C219.416 163.687 221.488 168.292 224.711 171.515C225.863 172.666 227.935 172.666 229.316 171.745C231.158 170.134 233.921 169.213 236.684 169.213C239.677 169.213 241.979 170.134 244.052 171.745C245.433 172.897 247.275 172.666 248.656 171.285C251.88 168.062 253.952 163.687 253.952 158.622C253.722 149.182 246.124 141.354 236.684 141.354ZM236.454 167.601C231.158 167.601 227.705 163.687 227.705 158.852C227.705 154.017 231.158 150.103 236.454 150.103C241.749 150.103 245.203 154.017 245.203 158.852C245.203 163.687 241.749 167.601 236.454 167.601Z" fill="black"/>
<path fill-rule="evenodd" clip-rule="evenodd" d="M251.881 142.045H259.709L266.156 159.083L272.602 142.045H279.279L285.496 159.083L291.942 142.045H300.001L288.259 171.746H282.272L275.826 154.938L269.609 171.746H263.623L251.881 142.045Z" fill="black"/>
</svg>
