<svg width="300" height="300" viewBox="0 0 300 300" fill="none" xmlns="http://www.w3.org/2000/svg">
<path fill-rule="evenodd" clip-rule="evenodd" d="M230.983 51.9497H70.0177C65.2265 51.9515 60.632 53.8556 57.244 57.2436C53.8561 60.6315 51.952 65.226 51.9502 70.0172V230.982C51.952 235.773 53.8561 240.368 57.244 243.756C60.632 247.144 65.2265 249.048 70.0177 249.05H230.983C235.774 249.048 240.368 247.144 243.756 243.756C247.144 240.368 249.048 235.773 249.05 230.982V70.0172C249.048 65.226 247.144 60.6315 243.756 57.2436C240.368 53.8556 235.774 51.9515 230.983 51.9497ZM243.575 230.982C243.575 234.322 242.248 237.525 239.887 239.886C237.525 242.248 234.322 243.575 230.983 243.575H70.0177C66.678 243.575 63.475 242.248 61.1135 239.886C58.7519 237.525 57.4252 234.322 57.4252 230.982V70.0172C57.4252 66.6775 58.7519 63.4745 61.1135 61.113C63.475 58.7514 66.678 57.4247 70.0177 57.4247H230.983C234.322 57.4247 237.525 58.7514 239.887 61.113C242.248 63.4745 243.575 66.6775 243.575 70.0172V230.982Z" fill="black"/>
<path fill-rule="evenodd" clip-rule="evenodd" d="M195.314 158.843C193.02 158.841 190.742 159.22 188.573 159.965L165.68 121.818C168.405 118.867 170.211 115.186 170.877 111.225C171.542 107.264 171.039 103.195 169.428 99.516C167.818 95.8366 165.17 92.7064 161.808 90.5083C158.447 88.3103 154.517 87.1396 150.501 87.1396C146.485 87.1396 142.555 88.3103 139.194 90.5083C135.832 92.7064 133.184 95.8366 131.574 99.516C129.963 103.195 129.46 107.264 130.125 111.225C130.791 115.186 132.597 118.867 135.322 121.818L112.429 159.965C108.399 158.574 104.037 158.463 99.9419 159.648C95.8464 160.833 92.2175 163.255 89.5526 166.583C86.8877 169.911 85.3172 173.982 85.0563 178.237C84.7954 182.493 85.857 186.725 88.0954 190.353C90.3339 193.982 93.6397 196.829 97.5598 198.506C101.48 200.182 105.822 200.605 109.992 199.716C114.162 198.828 117.955 196.672 120.852 193.543C123.748 190.415 125.606 186.467 126.171 182.241H174.831C175.356 186.176 177.005 189.875 179.578 192.898C182.151 195.92 185.54 198.137 189.34 199.284C193.141 200.431 197.191 200.459 201.006 199.364C204.822 198.27 208.241 196.1 210.856 193.113C213.47 190.126 215.169 186.45 215.749 182.523C216.329 178.596 215.766 174.585 214.126 170.97C212.487 167.355 209.841 164.289 206.505 162.138C203.168 159.988 199.283 158.843 195.314 158.843ZM135.315 107.809C135.315 104.805 136.205 101.869 137.874 99.3716C139.543 96.8742 141.915 94.9278 144.689 93.7784C147.464 92.629 150.518 92.3282 153.464 92.9142C156.41 93.5001 159.116 94.9465 161.239 97.0703C163.363 99.1942 164.81 101.9 165.396 104.846C165.981 107.792 165.681 110.845 164.531 113.62C163.382 116.395 161.435 118.767 158.938 120.436C156.441 122.104 153.505 122.995 150.501 122.995C146.474 122.993 142.612 121.393 139.765 118.545C136.917 115.697 135.317 111.836 135.315 107.809ZM105.688 194.724C102.685 194.724 99.7485 193.834 97.2511 192.165C94.7537 190.496 92.8073 188.124 91.6579 185.35C90.5084 182.575 90.2077 179.521 90.7937 176.575C91.3796 173.629 92.826 170.924 94.9498 168.8C97.0737 166.676 99.7796 165.229 102.725 164.644C105.671 164.058 108.725 164.358 111.5 165.508C114.275 166.657 116.646 168.604 118.315 171.101C119.984 173.598 120.874 176.534 120.874 179.538C120.864 183.559 119.259 187.412 116.412 190.252C113.566 193.092 109.709 194.688 105.688 194.69V194.724ZM126.171 176.801C125.787 173.925 124.801 171.162 123.277 168.693C121.754 166.224 119.727 164.103 117.329 162.47L139.585 125.383C142.861 127.423 146.642 128.504 150.501 128.504C154.36 128.504 158.141 127.423 161.417 125.383L183.673 162.47C181.275 164.103 179.248 166.224 177.725 168.693C176.201 171.162 175.215 173.925 174.831 176.801H126.171ZM195.293 194.724C192.29 194.724 189.354 193.834 186.856 192.165C184.359 190.496 182.412 188.124 181.263 185.35C180.114 182.575 179.813 179.521 180.399 176.575C180.985 173.629 182.431 170.924 184.555 168.8C186.679 166.676 189.385 165.229 192.331 164.644C195.277 164.058 198.33 164.358 201.105 165.508C203.88 166.657 206.252 168.604 207.92 171.101C209.589 173.598 210.48 176.534 210.48 179.538C210.469 183.556 208.867 187.405 206.025 190.245C203.183 193.085 199.332 194.683 195.314 194.69L195.293 194.724Z" fill="black"/>
</svg>
