<svg width="300" height="300" viewBox="0 0 300 300" fill="none" xmlns="http://www.w3.org/2000/svg">
<path d="M195.836 87.5912L104.467 87.1943C102.318 87.1943 100.576 85.4521 100.576 83.3029C100.576 81.1538 102.318 79.4116 104.467 79.4116L195.828 79.8086C197.977 79.8104 199.717 81.5548 199.715 83.7036C199.714 85.8498 197.974 87.589 195.828 87.5912H195.836Z" fill="black"/>
<path d="M150.16 127.143C128.523 126.696 111.327 108.825 111.713 87.1867C111.713 85.0376 113.456 83.2954 115.605 83.2954C117.754 83.2954 119.496 85.0376 119.496 87.1867C119.109 104.527 132.82 118.914 150.16 119.36C167.496 118.914 181.204 104.525 180.808 87.1867C180.808 85.0376 182.55 83.2954 184.699 83.2954C186.848 83.2954 188.59 85.0376 188.59 87.1867C188.977 108.819 171.791 126.687 150.16 127.143Z" fill="black"/>
<path d="M184.908 83.7152H184.838C182.689 83.677 180.978 81.9041 181.016 79.7553C181.016 79.7523 181.016 79.7489 181.016 79.7459C181.239 68.6285 175.63 58.2045 166.229 52.2656C164.405 51.1284 163.847 48.7281 164.984 46.9031C166.121 45.0781 168.522 44.5208 170.347 45.658C182.059 53.0598 189.047 66.049 188.768 79.9018C188.726 82.0087 187.015 83.6991 184.908 83.7152Z" fill="black"/>
<path d="M115.379 82.4468H115.301C113.155 82.4044 111.449 80.6319 111.488 78.4853C111.266 65.5216 117.829 53.3825 128.796 46.4679C130.621 45.3288 133.023 45.8847 134.163 47.7093C135.302 49.5339 134.746 51.9361 132.921 53.0755C124.165 58.5752 118.972 68.2975 119.271 78.6338C119.228 80.7522 117.498 82.4471 115.379 82.4468Z" fill="black"/>
<path d="M133.645 60.3131C131.496 60.3131 129.754 58.571 129.754 56.4218L129.878 37.8913C129.878 35.7421 131.62 34 133.77 34L166.667 34.241C168.816 34.241 170.558 35.9831 170.558 38.1323L170.464 56.3903C170.464 58.5395 168.722 60.2817 166.573 60.2817C164.424 60.282 162.682 58.5403 162.681 56.3911C162.681 56.3675 162.682 56.3438 162.682 56.3202L162.783 41.9689L137.669 41.7902L137.575 56.4293C137.571 58.5785 135.826 60.3173 133.676 60.3131C133.666 60.3131 133.656 60.3131 133.645 60.3131Z" fill="black"/>
<path d="M218.849 243.329H217.035V235.546H218.849C220.948 235.543 223.003 234.947 224.779 233.826L242.165 222.215C246.98 219.319 248.904 213.304 246.664 208.152L224.468 159.899C221.952 154.745 217.506 150.791 212.094 148.894L183.352 138.458C181.66 137.841 179.87 137.532 178.068 137.548H122.811C119.642 137.536 116.498 138.117 113.542 139.26L90.1011 148.521C85.0261 150.433 80.8248 154.134 78.2873 158.926L54.2306 206.4C50.6567 213.762 53.6148 222.63 60.8922 226.371L73.3446 233.562C75.682 234.899 78.3334 235.59 81.0261 235.562H82.7619V243.344H81.0497C76.9848 243.373 72.9856 242.32 69.4616 240.293L57.0091 233.102C46.2144 227.248 41.9434 213.931 47.3197 202.89L71.3911 155.416C74.7903 148.929 80.4459 143.91 87.2908 141.306L110.639 132.068C114.508 130.57 118.623 129.805 122.772 129.811H178.068C180.782 129.785 183.478 130.246 186.029 131.173L214.731 141.602C222.091 144.211 228.125 149.621 231.518 156.653L253.714 204.906C257.603 213.535 254.494 223.709 246.445 228.69L229.005 240.364C225.975 242.307 222.449 243.336 218.849 243.329Z" fill="black"/>
<path d="M217.036 266H82.7624C80.6132 266 78.8711 264.258 78.8711 262.108V166.055C78.8711 163.906 80.6132 162.164 82.7624 162.164H217.036C219.185 162.164 220.927 163.906 220.927 166.055V262.108C220.928 264.258 219.186 266 217.036 266ZM86.6538 258.218H213.145V169.947H86.6538V258.218Z" fill="black"/>
<path d="M156.743 249.711H143.092C141.48 249.711 140.174 248.404 140.174 246.793V239.213C139.457 238.948 138.749 238.66 138.049 238.341L131.971 244.481C130.805 245.577 128.989 245.577 127.823 244.481L118.165 234.753C117.046 233.612 117.046 231.785 118.165 230.644L124.103 224.659C123.648 223.705 123.247 222.725 122.904 221.725H114.266C112.654 221.725 111.348 220.418 111.348 218.806V205.654C111.348 204.042 112.654 202.736 114.266 202.736H123.146C123.504 201.795 123.909 200.873 124.36 199.973L118.438 194.003C117.318 192.862 117.318 191.035 118.438 189.894L127.66 180.602C128.211 180.05 128.959 179.739 129.738 179.738C130.516 179.739 131.261 180.049 131.808 180.602L137.988 186.828C138.696 186.501 139.428 186.198 140.167 185.925V177.208C140.167 175.596 141.473 174.29 143.085 174.29H156.736C158.348 174.29 159.654 175.597 159.654 177.208V185.692C160.534 185.987 161.374 186.314 162.199 186.672L167.235 181.598C168.396 180.49 170.222 180.49 171.383 181.598L180.613 190.89C181.732 192.031 181.732 193.858 180.613 194.999L175.998 199.669C176.519 200.679 176.982 201.718 177.383 202.782H185.532C187.144 202.782 188.45 204.089 188.45 205.7V218.853C188.45 220.465 187.144 221.771 185.532 221.771H177.632C177.203 223.047 176.683 224.29 176.076 225.492L181.384 230.846C182.512 231.984 182.512 233.817 181.384 234.955L172.169 244.294C171.004 245.39 169.187 245.39 168.021 244.294L162.309 238.535C161.457 238.914 160.587 239.249 159.701 239.539V246.878C159.654 248.472 158.337 249.733 156.743 249.711ZM146.011 243.874H153.793V237.267C153.796 235.93 154.707 234.766 156.003 234.442C157.902 233.976 159.732 233.27 161.451 232.341C162.592 231.72 164.006 231.926 164.922 232.847L170.035 238.006L175.149 232.854L170.308 227.982C169.358 227.017 169.197 225.525 169.919 224.379C171.136 222.434 172.044 220.313 172.612 218.091C172.942 216.796 174.108 215.889 175.444 215.888H182.604V208.572H175.266C173.966 208.571 172.824 207.712 172.464 206.463C171.874 204.439 171.007 202.506 169.888 200.72C169.165 199.573 169.33 198.079 170.285 197.117L174.418 192.945L169.305 187.801L164.869 192.268C163.958 193.186 162.552 193.395 161.413 192.782C159.71 191.867 157.897 191.172 156.02 190.711C154.72 190.386 153.809 189.218 153.81 187.878V180.096H146.027V188.018C146.029 189.323 145.165 190.47 143.91 190.828C142.153 191.322 140.46 192.021 138.867 192.914C137.72 193.556 136.285 193.355 135.357 192.423L129.761 186.765L124.64 191.917L130.088 197.365C131.032 198.323 131.199 199.801 130.493 200.945C129.452 202.644 128.645 204.477 128.096 206.393C127.74 207.649 126.592 208.514 125.287 208.51H117.185V215.825H125.076C126.41 215.823 127.573 216.728 127.902 218.02C128.411 220.001 129.197 221.901 130.236 223.662C130.901 224.803 130.719 226.247 129.793 227.188L124.345 232.636L129.886 238.224L135.388 232.668C136.31 231.736 137.74 231.536 138.883 232.177C140.464 233.051 142.141 233.74 143.879 234.232C145.138 234.585 146.007 235.734 146.003 237.041L146.011 243.874Z" fill="black"/>
<path d="M149.903 226.76C141.736 226.691 135.172 220.016 135.241 211.849C135.31 203.683 141.985 197.118 150.152 197.187C158.27 197.255 164.814 203.855 164.814 211.973C164.78 220.174 158.104 226.794 149.903 226.76C149.903 226.76 149.903 226.76 149.903 226.76ZM149.903 203.086C144.978 203.172 141.055 207.234 141.141 212.159C141.227 217.084 145.289 221.007 150.214 220.921C155.09 220.836 158.994 216.85 158.977 211.974C158.909 207.019 154.857 203.048 149.903 203.078V203.086Z" fill="black"/>
</svg>
